M48
METRIC,LZ,000.000
;FILE_FORMAT=3:3
;TYPE=PLATED
;Layer: PTH_Through
;EasyEDA v6.5.42, 2024-04-05 23:01:38
;19b4a430252b4fb6b2096f344fa6e171,45826c4407594220944428adbfc87ba6,10
;Gerber Generator version 0.2
;Holesize 1 = 0.306 mm
T01C0.306
;Holesize 2 = 0.801 mm
T02C0.801
;Holesize 3 = 0.915 mm
T03C0.915
;Holesize 4 = 1.000 mm
T04C1.000
;Holesize 5 = 1.101 mm
T05C1.101
;Holesize 6 = 1.200 mm
T06C1.200
%
G05
G90
T01
X040782Y099566
X054335Y060192
X055725Y058239
X078764Y070093
X055789Y070583
X059908Y070583
T02
X065959Y083549G85X065965Y083549
X065959Y081549G85X065965Y081549
X065959Y079549G85X065965Y079549
X065959Y077549G85X065965Y077549
X065959Y075549G85X065965Y075549
X065959Y073549G85X065965Y073549
X065959Y071549G85X065965Y071549
X065959Y069549G85X065965Y069549
X065959Y067549G85X065965Y067549
X065959Y065549G85X065965Y065549
X087965Y065549G85X087959Y065549
X087965Y067549G85X087959Y067549
X087965Y069549G85X087959Y069549
X087965Y071549G85X087959Y071549
X087965Y073549G85X087959Y073549
X087965Y075549G85X087959Y075549
X087965Y077549G85X087959Y077549
X087965Y079549G85X087959Y079549
X087965Y081549G85X087959Y081549
X087965Y083549G85X087959Y083549
T03
X050927Y103381G85X050927Y103375
X048387Y103381G85X048387Y103375
X045847Y103381G85X045847Y103375
X043307Y103381G85X043307Y103375
X040767Y103381G85X040767Y103375
X038227Y103381G85X038227Y103375
T04
X072883Y092964
X075363Y092964
X077843Y092964
X080323Y092964
T05
X079375Y052959
X076835Y052959
X074295Y052959
X071755Y052959
X069215Y052959
X066675Y052959
X064135Y052959
X061595Y052959
X059055Y052959
X056515Y052959
X053975Y052959
X051435Y052959
X048895Y052959
X046355Y052959
X043815Y052959
T06
X052451Y120015
X054991Y120015
X057531Y120015
X060071Y120015
X062611Y120015
X065151Y120015
X067691Y120015
X070231Y120015
X072771Y120015
M30
