G04 Layer: BottomLayer*
G04 EasyEDA v6.5.42, 2024-04-05 23:01:38*
G04 19b4a430252b4fb6b2096f344fa6e171,45826c4407594220944428adbfc87ba6,10*
G04 Gerber Generator version 0.2*
G04 Scale: 100 percent, Rotated: No, Reflected: No *
G04 Dimensions in millimeters *
G04 leading zeros omitted , absolute positions ,4 integer and 5 decimal *
%FSLAX45Y45*%
%MOMM*%

%ADD10C,0.5000*%
%ADD11C,1.3081*%
%ADD12C,2.0000*%
%ADD13C,1.7000*%
%ADD14R,1.7000X1.5748*%
%ADD15C,1.5240*%
%ADD16R,2.0000X2.0000*%
%ADD17C,0.6100*%

%LPD*%
D10*
X7536314Y9296400D02*
G01*
X7536314Y5656706D01*
X7175507Y5295900D01*
X7784320Y9296400D02*
G01*
X7770756Y9282836D01*
X7770756Y5637148D01*
X7429507Y5295900D01*
X5578889Y7058329D02*
G01*
X5578889Y9343618D01*
X4584707Y10337800D01*
X6667507Y5295900D02*
G01*
X5990826Y5972581D01*
X5990826Y7058329D01*
X5651507Y5295900D02*
G01*
X5684553Y5328945D01*
X5684553Y7243241D01*
X6596209Y8154898D01*
X6007107Y12001500D02*
G01*
X5092707Y11087100D01*
X5092707Y10337800D01*
X8032300Y9296400D02*
G01*
X8032300Y7165162D01*
X7876420Y7009282D01*
X6596209Y8354898D02*
G01*
X6596209Y8604300D01*
X7288309Y9296400D01*
X5245107Y11826443D02*
G01*
X4838707Y11420043D01*
X4838707Y10337800D01*
X5245107Y12001500D02*
G01*
X5245107Y11826443D01*
X6596209Y7954898D02*
G01*
X5885162Y7243851D01*
X5885162Y5316245D01*
X5905507Y5295900D01*
X3822707Y10337800D02*
G01*
X4098246Y10062260D01*
X4122021Y10062260D01*
X5465909Y8718372D01*
X5465909Y7014565D01*
X5465935Y7014565D01*
X5572513Y6907987D01*
X5572513Y5823915D01*
X4078231Y9956596D02*
G01*
X4078231Y7374509D01*
X5433524Y6019215D01*
D11*
G01*
X6596202Y8354898D03*
G01*
X6596202Y8154898D03*
G01*
X6596202Y7954898D03*
G01*
X6596202Y7754899D03*
G01*
X6596202Y7554899D03*
G01*
X6596202Y7354900D03*
G01*
X6596202Y7154900D03*
G01*
X6596202Y6954901D03*
G01*
X6596202Y6754901D03*
G01*
X6596202Y6554901D03*
G01*
X8796197Y6554901D03*
G01*
X8796197Y6754901D03*
G01*
X8796197Y6954901D03*
G01*
X8796197Y7154900D03*
G01*
X8796197Y7354900D03*
G01*
X8796197Y7554899D03*
G01*
X8796197Y7754899D03*
G01*
X8796197Y7954898D03*
G01*
X8796197Y8154898D03*
G01*
X8796197Y8354898D03*
D12*
G01*
X5092700Y10337800D03*
G01*
X4838700Y10337800D03*
G01*
X4584700Y10337800D03*
G01*
X4330700Y10337800D03*
G01*
X4076700Y10337800D03*
G01*
X3822700Y10337800D03*
D13*
G01*
X7937500Y5295900D03*
G01*
X7683500Y5295900D03*
G01*
X7429500Y5295900D03*
G01*
X7175500Y5295900D03*
G01*
X6921500Y5295900D03*
G01*
X6667500Y5295900D03*
G01*
X6413500Y5295900D03*
G01*
X6159500Y5295900D03*
G01*
X5905500Y5295900D03*
G01*
X5651500Y5295900D03*
G01*
X5397500Y5295900D03*
G01*
X5143500Y5295900D03*
G01*
X4889500Y5295900D03*
G01*
X4635500Y5295900D03*
D14*
G01*
X4381500Y5295900D03*
D15*
G01*
X7288301Y9296400D03*
G01*
X7536306Y9296400D03*
G01*
X7784312Y9296400D03*
G01*
X8032292Y9296400D03*
D16*
G01*
X5245100Y12001500D03*
D12*
G01*
X5499100Y12001500D03*
G01*
X5753100Y12001500D03*
G01*
X6007100Y12001500D03*
G01*
X6261100Y12001500D03*
G01*
X6515100Y12001500D03*
G01*
X6769100Y12001500D03*
G01*
X7023100Y12001500D03*
G01*
X7277100Y12001500D03*
D17*
G01*
X4078231Y9956596D03*
G01*
X5433524Y6019215D03*
G01*
X5572513Y5823915D03*
G01*
X7876420Y7009282D03*
G01*
X5578889Y7058329D03*
G01*
X5990826Y7058329D03*
M02*
