G04 Layer: TopSilkscreenLayer*
G04 EasyEDA v6.5.42, 2024-04-05 23:01:38*
G04 19b4a430252b4fb6b2096f344fa6e171,45826c4407594220944428adbfc87ba6,10*
G04 Gerber Generator version 0.2*
G04 Scale: 100 percent, Rotated: No, Reflected: No *
G04 Dimensions in millimeters *
G04 leading zeros omitted , absolute positions ,4 integer and 5 decimal *
%FSLAX45Y45*%
%MOMM*%

%ADD10C,0.1524*%
%ADD11C,0.2032*%
%ADD12C,0.1016*%
%ADD13C,0.2540*%
%ADD14C,0.2030*%
%ADD15C,0.0122*%

%LPD*%
D10*
X7748270Y9145015D02*
G01*
X7748270Y9061958D01*
X7742936Y9046210D01*
X7737856Y9041129D01*
X7727441Y9036050D01*
X7717027Y9036050D01*
X7706613Y9041129D01*
X7701279Y9046210D01*
X7696200Y9061958D01*
X7696200Y9072371D01*
X7782559Y9145015D02*
G01*
X7782559Y9036050D01*
X7782559Y9145015D02*
G01*
X7829295Y9145015D01*
X7844790Y9139936D01*
X7849870Y9134602D01*
X7855204Y9124187D01*
X7855204Y9108694D01*
X7849870Y9098279D01*
X7844790Y9093200D01*
X7829295Y9087865D01*
X7782559Y9087865D01*
X7889493Y9124187D02*
G01*
X7899908Y9129521D01*
X7915402Y9145015D01*
X7915402Y9036050D01*
X5741415Y8077200D02*
G01*
X5632450Y8077200D01*
X5741415Y8077200D02*
G01*
X5632450Y8035544D01*
X5741415Y7994142D02*
G01*
X5632450Y8035544D01*
X5741415Y7994142D02*
G01*
X5632450Y7994142D01*
X5715508Y7954518D02*
G01*
X5720588Y7954518D01*
X5731002Y7949437D01*
X5736336Y7944104D01*
X5741415Y7933689D01*
X5741415Y7913115D01*
X5736336Y7902702D01*
X5731002Y7897368D01*
X5720588Y7892287D01*
X5710174Y7892287D01*
X5699759Y7897368D01*
X5684265Y7907781D01*
X5632450Y7959852D01*
X5632450Y7886954D01*
D11*
X2897377Y9209786D02*
G01*
X2703575Y9283700D01*
X2897377Y9209786D02*
G01*
X2703575Y9135871D01*
X2768091Y9256013D02*
G01*
X2768091Y9163558D01*
X2805175Y8973312D02*
G01*
X2823463Y8982710D01*
X2832861Y9010395D01*
X2832861Y9038081D01*
X2823463Y9065768D01*
X2805175Y9074912D01*
X2786634Y9065768D01*
X2777490Y9047226D01*
X2768091Y9000997D01*
X2758947Y8982710D01*
X2740406Y8973312D01*
X2731261Y8973312D01*
X2712720Y8982710D01*
X2703575Y9010395D01*
X2703575Y9038081D01*
X2712720Y9065768D01*
X2731261Y9074912D01*
X2897377Y8884665D02*
G01*
X2740406Y8884665D01*
X2712720Y8875521D01*
X2703575Y8856979D01*
X2703575Y8838437D01*
X2832861Y8912352D02*
G01*
X2832861Y8847836D01*
X2832861Y8777478D02*
G01*
X2703575Y8777478D01*
X2777490Y8777478D02*
G01*
X2805175Y8768334D01*
X2823463Y8749792D01*
X2832861Y8731250D01*
X2832861Y8703563D01*
X2832861Y8596629D02*
G01*
X2823463Y8614918D01*
X2805175Y8633460D01*
X2777490Y8642604D01*
X2758947Y8642604D01*
X2731261Y8633460D01*
X2712720Y8614918D01*
X2703575Y8596629D01*
X2703575Y8568689D01*
X2712720Y8550402D01*
X2731261Y8531860D01*
X2758947Y8522715D01*
X2777490Y8522715D01*
X2805175Y8531860D01*
X2823463Y8550402D01*
X2832861Y8568689D01*
X2832861Y8596629D01*
X2832861Y8461755D02*
G01*
X2638806Y8461755D01*
X2805175Y8461755D02*
G01*
X2823463Y8443213D01*
X2832861Y8424671D01*
X2832861Y8396986D01*
X2823463Y8378444D01*
X2805175Y8360155D01*
X2777490Y8350758D01*
X2758947Y8350758D01*
X2731261Y8360155D01*
X2712720Y8378444D01*
X2703575Y8396986D01*
X2703575Y8424671D01*
X2712720Y8443213D01*
X2731261Y8461755D01*
X2777490Y8289797D02*
G01*
X2777490Y8179054D01*
X2795777Y8179054D01*
X2814320Y8188197D01*
X2823463Y8197595D01*
X2832861Y8215884D01*
X2832861Y8243570D01*
X2823463Y8262112D01*
X2805175Y8280654D01*
X2777490Y8289797D01*
X2758947Y8289797D01*
X2731261Y8280654D01*
X2712720Y8262112D01*
X2703575Y8243570D01*
X2703575Y8215884D01*
X2712720Y8197595D01*
X2731261Y8179054D01*
X2777490Y8118094D02*
G01*
X2777490Y8007350D01*
X2795777Y8007350D01*
X2814320Y8016494D01*
X2823463Y8025637D01*
X2832861Y8044179D01*
X2832861Y8071865D01*
X2823463Y8090408D01*
X2805175Y8108950D01*
X2777490Y8118094D01*
X2758947Y8118094D01*
X2731261Y8108950D01*
X2712720Y8090408D01*
X2703575Y8071865D01*
X2703575Y8044179D01*
X2712720Y8025637D01*
X2731261Y8007350D01*
X2832861Y7946389D02*
G01*
X2638806Y7946389D01*
X2805175Y7946389D02*
G01*
X2823463Y7927847D01*
X2832861Y7909305D01*
X2832861Y7881620D01*
X2823463Y7863078D01*
X2805175Y7844789D01*
X2777490Y7835392D01*
X2758947Y7835392D01*
X2731261Y7844789D01*
X2712720Y7863078D01*
X2703575Y7881620D01*
X2703575Y7909305D01*
X2712720Y7927847D01*
X2731261Y7946389D01*
X4842509Y7035292D02*
G01*
X4879086Y7071613D01*
X4897120Y7126223D01*
X4897120Y7198868D01*
X4879086Y7253478D01*
X4842509Y7289800D01*
X4806188Y7289800D01*
X4769865Y7271765D01*
X4751577Y7253478D01*
X4733543Y7217155D01*
X4697222Y7107936D01*
X4678934Y7071613D01*
X4660900Y7053579D01*
X4624324Y7035292D01*
X4569968Y7035292D01*
X4533391Y7071613D01*
X4515358Y7126223D01*
X4515358Y7198868D01*
X4533391Y7253478D01*
X4569968Y7289800D01*
X4897120Y6915404D02*
G01*
X4515358Y6915404D01*
X4897120Y6915404D02*
G01*
X4897120Y6787895D01*
X4879086Y6733539D01*
X4842509Y6697218D01*
X4806188Y6678929D01*
X4751577Y6660642D01*
X4660900Y6660642D01*
X4606290Y6678929D01*
X4569968Y6697218D01*
X4533391Y6733539D01*
X4515358Y6787895D01*
X4515358Y6915404D01*
X3936491Y10025634D02*
G01*
X3951224Y10032745D01*
X3965702Y10047224D01*
X3973068Y10061955D01*
X3973068Y10090912D01*
X3965702Y10105389D01*
X3951224Y10120121D01*
X3936491Y10127234D01*
X3914902Y10134600D01*
X3878325Y10134600D01*
X3856736Y10127234D01*
X3842004Y10120121D01*
X3827525Y10105389D01*
X3820159Y10090912D01*
X3820159Y10061955D01*
X3827525Y10047224D01*
X3842004Y10032745D01*
X3856736Y10025634D01*
X3951224Y9875774D02*
G01*
X3965702Y9890252D01*
X3973068Y9912095D01*
X3973068Y9941052D01*
X3965702Y9962895D01*
X3951224Y9977628D01*
X3936491Y9977628D01*
X3922013Y9970262D01*
X3914902Y9962895D01*
X3907536Y9948418D01*
X3893058Y9904729D01*
X3885691Y9890252D01*
X3878325Y9882886D01*
X3863847Y9875774D01*
X3842004Y9875774D01*
X3827525Y9890252D01*
X3820159Y9912095D01*
X3820159Y9941052D01*
X3827525Y9962895D01*
X3842004Y9977628D01*
X4205224Y10032745D02*
G01*
X4219702Y10047224D01*
X4227068Y10069068D01*
X4227068Y10098278D01*
X4219702Y10120121D01*
X4205224Y10134600D01*
X4190491Y10134600D01*
X4176013Y10127234D01*
X4168902Y10120121D01*
X4161536Y10105389D01*
X4147058Y10061955D01*
X4139691Y10047224D01*
X4132325Y10040112D01*
X4117847Y10032745D01*
X4096004Y10032745D01*
X4081525Y10047224D01*
X4074159Y10069068D01*
X4074159Y10098278D01*
X4081525Y10120121D01*
X4096004Y10134600D01*
X4190491Y9875774D02*
G01*
X4205224Y9882886D01*
X4219702Y9897618D01*
X4227068Y9912095D01*
X4227068Y9941052D01*
X4219702Y9955784D01*
X4205224Y9970262D01*
X4190491Y9977628D01*
X4168902Y9984739D01*
X4132325Y9984739D01*
X4110736Y9977628D01*
X4096004Y9970262D01*
X4081525Y9955784D01*
X4074159Y9941052D01*
X4074159Y9912095D01*
X4081525Y9897618D01*
X4096004Y9882886D01*
X4110736Y9875774D01*
X4227068Y9827768D02*
G01*
X4074159Y9827768D01*
X4227068Y9725913D02*
G01*
X4125213Y9827768D01*
X4161536Y9791445D02*
G01*
X4074159Y9725913D01*
X4481068Y10134600D02*
G01*
X4328159Y10134600D01*
X4481068Y10134600D02*
G01*
X4328159Y10076434D01*
X4481068Y10018268D02*
G01*
X4328159Y10076434D01*
X4481068Y10018268D02*
G01*
X4328159Y10018268D01*
X4481068Y9926574D02*
G01*
X4473702Y9941052D01*
X4459224Y9955784D01*
X4444491Y9962895D01*
X4422902Y9970262D01*
X4386325Y9970262D01*
X4364736Y9962895D01*
X4350004Y9955784D01*
X4335525Y9941052D01*
X4328159Y9926574D01*
X4328159Y9897618D01*
X4335525Y9882886D01*
X4350004Y9868408D01*
X4364736Y9861042D01*
X4386325Y9853929D01*
X4422902Y9853929D01*
X4444491Y9861042D01*
X4459224Y9868408D01*
X4473702Y9882886D01*
X4481068Y9897618D01*
X4481068Y9926574D01*
X4459224Y9704070D02*
G01*
X4473702Y9718547D01*
X4481068Y9740392D01*
X4481068Y9769602D01*
X4473702Y9791445D01*
X4459224Y9805924D01*
X4444491Y9805924D01*
X4430013Y9798558D01*
X4422902Y9791445D01*
X4415536Y9776713D01*
X4401058Y9733026D01*
X4393691Y9718547D01*
X4386325Y9711436D01*
X4371847Y9704070D01*
X4350004Y9704070D01*
X4335525Y9718547D01*
X4328159Y9740392D01*
X4328159Y9769602D01*
X4335525Y9791445D01*
X4350004Y9805924D01*
X4481068Y9656063D02*
G01*
X4328159Y9656063D01*
X4735068Y10134600D02*
G01*
X4582159Y10134600D01*
X4735068Y10134600D02*
G01*
X4582159Y10076434D01*
X4735068Y10018268D02*
G01*
X4582159Y10076434D01*
X4735068Y10018268D02*
G01*
X4582159Y10018268D01*
X4735068Y9970262D02*
G01*
X4582159Y9970262D01*
X4713224Y9820402D02*
G01*
X4727702Y9834879D01*
X4735068Y9856724D01*
X4735068Y9885934D01*
X4727702Y9907778D01*
X4713224Y9922255D01*
X4698491Y9922255D01*
X4684013Y9914889D01*
X4676902Y9907778D01*
X4669536Y9893045D01*
X4655058Y9849612D01*
X4647691Y9834879D01*
X4640325Y9827768D01*
X4625847Y9820402D01*
X4604004Y9820402D01*
X4589525Y9834879D01*
X4582159Y9856724D01*
X4582159Y9885934D01*
X4589525Y9907778D01*
X4604004Y9922255D01*
X4735068Y9728708D02*
G01*
X4727702Y9743439D01*
X4713224Y9757918D01*
X4698491Y9765029D01*
X4676902Y9772395D01*
X4640325Y9772395D01*
X4618736Y9765029D01*
X4604004Y9757918D01*
X4589525Y9743439D01*
X4582159Y9728708D01*
X4582159Y9699752D01*
X4589525Y9685020D01*
X4604004Y9670542D01*
X4618736Y9663429D01*
X4640325Y9656063D01*
X4676902Y9656063D01*
X4698491Y9663429D01*
X4713224Y9670542D01*
X4727702Y9685020D01*
X4735068Y9699752D01*
X4735068Y9728708D01*
X4989068Y10134600D02*
G01*
X4836159Y10076434D01*
X4989068Y10018268D02*
G01*
X4836159Y10076434D01*
X4952491Y9861042D02*
G01*
X4967224Y9868408D01*
X4981702Y9882886D01*
X4989068Y9897618D01*
X4989068Y9926574D01*
X4981702Y9941052D01*
X4967224Y9955784D01*
X4952491Y9962895D01*
X4930902Y9970262D01*
X4894325Y9970262D01*
X4872736Y9962895D01*
X4858004Y9955784D01*
X4843525Y9941052D01*
X4836159Y9926574D01*
X4836159Y9897618D01*
X4843525Y9882886D01*
X4858004Y9868408D01*
X4872736Y9861042D01*
X4952491Y9704070D02*
G01*
X4967224Y9711436D01*
X4981702Y9725913D01*
X4989068Y9740392D01*
X4989068Y9769602D01*
X4981702Y9784079D01*
X4967224Y9798558D01*
X4952491Y9805924D01*
X4930902Y9813036D01*
X4894325Y9813036D01*
X4872736Y9805924D01*
X4858004Y9798558D01*
X4843525Y9784079D01*
X4836159Y9769602D01*
X4836159Y9740392D01*
X4843525Y9725913D01*
X4858004Y9711436D01*
X4872736Y9704070D01*
X5206491Y10025634D02*
G01*
X5221224Y10032745D01*
X5235702Y10047224D01*
X5243068Y10061955D01*
X5243068Y10090912D01*
X5235702Y10105389D01*
X5221224Y10120121D01*
X5206491Y10127234D01*
X5184902Y10134600D01*
X5148325Y10134600D01*
X5126736Y10127234D01*
X5112004Y10120121D01*
X5097525Y10105389D01*
X5090159Y10090912D01*
X5090159Y10061955D01*
X5097525Y10047224D01*
X5112004Y10032745D01*
X5126736Y10025634D01*
X5148325Y10025634D01*
X5148325Y10061955D02*
G01*
X5148325Y10025634D01*
X5243068Y9977628D02*
G01*
X5090159Y9977628D01*
X5243068Y9977628D02*
G01*
X5090159Y9875774D01*
X5243068Y9875774D02*
G01*
X5090159Y9875774D01*
X5243068Y9827768D02*
G01*
X5090159Y9827768D01*
X5243068Y9827768D02*
G01*
X5243068Y9776713D01*
X5235702Y9754870D01*
X5221224Y9740392D01*
X5206491Y9733026D01*
X5184902Y9725913D01*
X5148325Y9725913D01*
X5126736Y9733026D01*
X5112004Y9740392D01*
X5097525Y9754870D01*
X5090159Y9776713D01*
X5090159Y9827768D01*
D10*
X6159500Y5563615D02*
G01*
X6159500Y5454650D01*
X6159500Y5563615D02*
G01*
X6206236Y5563615D01*
X6221729Y5558536D01*
X6227063Y5553202D01*
X6232143Y5542787D01*
X6232143Y5527294D01*
X6227063Y5516879D01*
X6221729Y5511800D01*
X6206236Y5506465D01*
X6159500Y5506465D01*
X6266434Y5542787D02*
G01*
X6276847Y5548121D01*
X6292595Y5563615D01*
X6292595Y5454650D01*
X7632700Y11596115D02*
G01*
X7632700Y11518137D01*
X7637779Y11502644D01*
X7648193Y11492229D01*
X7663941Y11487150D01*
X7674356Y11487150D01*
X7689850Y11492229D01*
X7700263Y11502644D01*
X7705343Y11518137D01*
X7705343Y11596115D01*
X7744968Y11570208D02*
G01*
X7744968Y11575287D01*
X7750047Y11585702D01*
X7755381Y11591036D01*
X7765795Y11596115D01*
X7786370Y11596115D01*
X7796784Y11591036D01*
X7802118Y11585702D01*
X7807197Y11575287D01*
X7807197Y11564874D01*
X7802118Y11554460D01*
X7791704Y11538965D01*
X7739634Y11487150D01*
X7812531Y11487150D01*
D11*
X7980172Y9607552D02*
G01*
X7975854Y9616696D01*
X7966709Y9625840D01*
X7957565Y9630412D01*
X7939277Y9630412D01*
X7930388Y9625840D01*
X7921243Y9616696D01*
X7916672Y9607552D01*
X7912100Y9594090D01*
X7912100Y9571230D01*
X7916672Y9557514D01*
X7921243Y9548624D01*
X7930388Y9539480D01*
X7939277Y9534908D01*
X7957565Y9534908D01*
X7966709Y9539480D01*
X7975854Y9548624D01*
X7980172Y9557514D01*
X7980172Y9571230D01*
X7957565Y9571230D02*
G01*
X7980172Y9571230D01*
X8010397Y9630412D02*
G01*
X8010397Y9534908D01*
X8010397Y9630412D02*
G01*
X8073897Y9534908D01*
X8073897Y9630412D02*
G01*
X8073897Y9534908D01*
X8103870Y9630412D02*
G01*
X8103870Y9534908D01*
X8103870Y9630412D02*
G01*
X8135620Y9630412D01*
X8149336Y9625840D01*
X8158479Y9616696D01*
X8163052Y9607552D01*
X8167624Y9594090D01*
X8167624Y9571230D01*
X8163052Y9557514D01*
X8158479Y9548624D01*
X8149336Y9539480D01*
X8135620Y9534908D01*
X8103870Y9534908D01*
X7480300Y9630412D02*
G01*
X7480300Y9534908D01*
X7480300Y9630412D02*
G01*
X7521193Y9630412D01*
X7534909Y9625840D01*
X7539481Y9621268D01*
X7544054Y9612124D01*
X7544054Y9602980D01*
X7539481Y9594090D01*
X7534909Y9589518D01*
X7521193Y9584946D01*
X7480300Y9584946D01*
X7512050Y9584946D02*
G01*
X7544054Y9534908D01*
X7574025Y9630412D02*
G01*
X7637525Y9534908D01*
X7637525Y9630412D02*
G01*
X7574025Y9534908D01*
X7740650Y9630412D02*
G01*
X7740650Y9534908D01*
X7708900Y9630412D02*
G01*
X7772654Y9630412D01*
X7802625Y9630412D02*
G01*
X7866125Y9534908D01*
X7866125Y9630412D02*
G01*
X7802625Y9534908D01*
X7150100Y9630412D02*
G01*
X7186422Y9534908D01*
X7222743Y9630412D02*
G01*
X7186422Y9534908D01*
X7321041Y9607552D02*
G01*
X7316470Y9616696D01*
X7307325Y9625840D01*
X7298181Y9630412D01*
X7280147Y9630412D01*
X7271004Y9625840D01*
X7261859Y9616696D01*
X7257288Y9607552D01*
X7252715Y9594090D01*
X7252715Y9571230D01*
X7257288Y9557514D01*
X7261859Y9548624D01*
X7271004Y9539480D01*
X7280147Y9534908D01*
X7298181Y9534908D01*
X7307325Y9539480D01*
X7316470Y9548624D01*
X7321041Y9557514D01*
X7419086Y9607552D02*
G01*
X7414768Y9616696D01*
X7405624Y9625840D01*
X7396479Y9630412D01*
X7378191Y9630412D01*
X7369302Y9625840D01*
X7360158Y9616696D01*
X7355586Y9607552D01*
X7351013Y9594090D01*
X7351013Y9571230D01*
X7355586Y9557514D01*
X7360158Y9548624D01*
X7369302Y9539480D01*
X7378191Y9534908D01*
X7396479Y9534908D01*
X7405624Y9539480D01*
X7414768Y9548624D01*
X7419086Y9557514D01*
D10*
X6248400Y12281915D02*
G01*
X6248400Y12172950D01*
X6248400Y12281915D02*
G01*
X6295136Y12281915D01*
X6310629Y12276836D01*
X6315963Y12271502D01*
X6321043Y12261087D01*
X6321043Y12245594D01*
X6315963Y12235179D01*
X6310629Y12230100D01*
X6295136Y12224765D01*
X6248400Y12224765D01*
X6360668Y12256008D02*
G01*
X6360668Y12261087D01*
X6365747Y12271502D01*
X6371081Y12276836D01*
X6381495Y12281915D01*
X6402070Y12281915D01*
X6412484Y12276836D01*
X6417818Y12271502D01*
X6422897Y12261087D01*
X6422897Y12250674D01*
X6417818Y12240260D01*
X6407404Y12224765D01*
X6355334Y12172950D01*
X6428231Y12172950D01*
D11*
X6486194Y5724397D02*
G01*
X6486194Y8364905D01*
X7118705Y8997391D01*
X8273694Y8997391D01*
X8906205Y8364905D01*
X8906205Y5724397D01*
X6486194Y5724397D01*
D10*
X6857923Y7741742D02*
G01*
X8439784Y7741742D01*
X6857923Y7211212D02*
G01*
X8439784Y7211212D01*
D12*
X6955383Y7672120D02*
G01*
X7108570Y7672120D01*
X7108570Y7663764D01*
X7104379Y7655407D01*
X7108570Y7648447D01*
X7108570Y7641488D01*
X7143368Y7553756D01*
X7242251Y7651242D01*
X7247813Y7658201D01*
X7251979Y7666558D01*
X7253376Y7672120D01*
X7341108Y7672120D01*
X7322997Y7659598D01*
X7309078Y7649845D01*
X7289571Y7633131D01*
X7158685Y7510602D01*
X7236663Y7318425D01*
X7258938Y7287793D01*
X7263129Y7287793D01*
X7271486Y7296150D01*
X7282611Y7329576D01*
X7299325Y7392238D01*
X7318832Y7471613D01*
X7355027Y7619212D01*
X7360589Y7644282D01*
X7360589Y7672120D01*
X7676692Y7672120D01*
X7693406Y7667955D01*
X7704556Y7660995D01*
X7712887Y7645679D01*
X7718475Y7631734D01*
X7718475Y7608062D01*
X7714284Y7596936D01*
X7697571Y7527315D01*
X7692009Y7513370D01*
X7671130Y7492492D01*
X7654416Y7485532D01*
X7632141Y7479969D01*
X7604302Y7479969D01*
X7644663Y7474381D01*
X7673898Y7460462D01*
X7675295Y7457668D01*
X7675295Y7420076D01*
X7659979Y7358811D01*
X7650251Y7343495D01*
X7647457Y7326782D01*
X7626578Y7303109D01*
X7609865Y7294753D01*
X7583398Y7286396D01*
X7100188Y7286396D01*
X7108570Y7301712D01*
X7108570Y7311466D01*
X7063993Y7421473D01*
X6948424Y7308672D01*
X6935901Y7286396D01*
X6853732Y7286396D01*
X6888530Y7311466D01*
X7050074Y7463256D01*
X6970699Y7656804D01*
X6955383Y7672120D01*
X7466431Y7624775D02*
G01*
X7594549Y7624775D01*
X7607071Y7617815D01*
X7608468Y7595539D01*
X7588961Y7521727D01*
X7584795Y7511999D01*
X7576438Y7506411D01*
X7437196Y7506411D01*
X7466431Y7624775D01*
X7427442Y7456296D02*
G01*
X7554163Y7456296D01*
X7565288Y7452105D01*
X7572247Y7442352D01*
X7572247Y7438186D01*
X7551369Y7356017D01*
X7545806Y7347661D01*
X7536052Y7336536D01*
X7530490Y7333742D01*
X7395413Y7333742D01*
X7427442Y7456296D01*
X7832648Y7445146D02*
G01*
X7842402Y7502245D01*
X7846568Y7513370D01*
X7852156Y7523124D01*
X7860512Y7527315D01*
X7959369Y7527315D01*
X7964931Y7525918D01*
X7969122Y7521727D01*
X7969122Y7503642D01*
X7953806Y7443749D01*
X7834045Y7443749D01*
X7832648Y7445146D01*
X8012277Y7286396D02*
G01*
X7736560Y7286396D01*
X7725435Y7289190D01*
X7714284Y7297546D01*
X7707325Y7307300D01*
X7703159Y7322616D01*
X7703159Y7336536D01*
X7705928Y7358811D01*
X7733791Y7482738D01*
X7737957Y7498054D01*
X7754670Y7531480D01*
X7767218Y7549591D01*
X7789494Y7563510D01*
X7806207Y7569072D01*
X7814538Y7570470D01*
X8033181Y7570470D01*
X8048497Y7564907D01*
X8066608Y7550988D01*
X8072170Y7545400D01*
X8072170Y7496657D01*
X8048497Y7400594D01*
X7820126Y7400594D01*
X7808975Y7353249D01*
X7806207Y7344892D01*
X7807579Y7335138D01*
X7813166Y7330947D01*
X8013674Y7330947D01*
X8031784Y7333742D01*
X8012277Y7286396D01*
X8203056Y7445146D02*
G01*
X8212810Y7502245D01*
X8216976Y7513370D01*
X8222538Y7523124D01*
X8230920Y7527315D01*
X8329777Y7527315D01*
X8335340Y7525918D01*
X8339531Y7521727D01*
X8339531Y7503642D01*
X8324189Y7443749D01*
X8204454Y7443749D01*
X8203056Y7445146D01*
X8382685Y7286396D02*
G01*
X8106968Y7286396D01*
X8095818Y7289190D01*
X8084693Y7297546D01*
X8077733Y7307300D01*
X8073542Y7322616D01*
X8073542Y7336536D01*
X8076336Y7358811D01*
X8104200Y7482738D01*
X8108365Y7498054D01*
X8125079Y7531480D01*
X8137601Y7549591D01*
X8159877Y7563510D01*
X8176590Y7569072D01*
X8184946Y7570470D01*
X8403590Y7570470D01*
X8418880Y7564907D01*
X8436990Y7550988D01*
X8442579Y7545400D01*
X8442579Y7496657D01*
X8418880Y7400594D01*
X8190509Y7400594D01*
X8179384Y7353249D01*
X8176590Y7344892D01*
X8177987Y7335138D01*
X8183549Y7330947D01*
X8384082Y7330947D01*
X8402167Y7333742D01*
X8382685Y7286396D01*
X7725435Y7113727D02*
G01*
X7737957Y7113727D01*
X7749108Y7122083D01*
X7760258Y7133234D01*
X7772781Y7126274D01*
X7822920Y7126274D01*
X7863281Y7122083D01*
X7891145Y7105370D01*
X7898104Y7092848D01*
X7898104Y7087285D01*
X7892541Y7074738D01*
X7884185Y7065010D01*
X7867472Y7053859D01*
X7806207Y7023227D01*
X7774177Y7010679D01*
X7749108Y7005116D01*
X7740751Y7003719D01*
X7730997Y7003719D01*
X7726832Y6991197D01*
X7718475Y6966127D01*
X7711516Y6943852D01*
X7705928Y6934098D01*
X7703159Y6928535D01*
X7697571Y6925741D01*
X7690611Y6929932D01*
X7685049Y6938289D01*
X7685049Y6948043D01*
X7687843Y6959168D01*
X7700365Y6985609D01*
X7708722Y7005116D01*
X7711516Y7023227D01*
X7715681Y7039940D01*
X7722641Y7062215D01*
X7729600Y7078929D01*
X7736560Y7090054D01*
X7725435Y7090054D01*
X7725435Y7113727D01*
X7774177Y7098411D02*
G01*
X7845196Y7098411D01*
X7861909Y7091451D01*
X7866075Y7088682D01*
X7864678Y7084491D01*
X7857718Y7078929D01*
X7835442Y7067778D01*
X7817332Y7055256D01*
X7792262Y7048296D01*
X7774177Y7041311D01*
X7763027Y7039940D01*
X7746314Y7039940D01*
X7771384Y7091451D01*
X7774177Y7098411D01*
X7962163Y7091451D02*
G01*
X7957972Y7097013D01*
X7951012Y7101204D01*
X7948218Y7106767D01*
X7949641Y7115124D01*
X7957972Y7123480D01*
X7973288Y7129043D01*
X7991398Y7136003D01*
X8072170Y7136003D01*
X8088884Y7131837D01*
X8108365Y7124877D01*
X8119516Y7117918D01*
X8129270Y7106767D01*
X8132038Y7099808D01*
X8125079Y7087285D01*
X8125079Y7076135D01*
X8113928Y7065010D01*
X8098612Y7055256D01*
X8067979Y7041311D01*
X8038744Y7023227D01*
X8024825Y7014870D01*
X8045704Y6993991D01*
X8072170Y6975881D01*
X8091652Y6960565D01*
X8102803Y6946620D01*
X8108365Y6932701D01*
X8109762Y6924344D01*
X8105597Y6916013D01*
X8101406Y6914616D01*
X8090281Y6922973D01*
X8035950Y6966127D01*
X7984439Y7000951D01*
X7974685Y7000951D01*
X7971916Y6991197D01*
X7962163Y6963333D01*
X7953806Y6938289D01*
X7948218Y6924344D01*
X7948218Y6916013D01*
X7932927Y6929932D01*
X7931531Y6950811D01*
X7934299Y6964730D01*
X7946847Y7009307D01*
X7953806Y7034352D01*
X7969122Y7069175D01*
X7978876Y7087285D01*
X7983042Y7097013D01*
X7973288Y7098411D01*
X7962163Y7090054D01*
X7962163Y7091451D01*
X8022031Y7102602D02*
G01*
X8072170Y7102602D01*
X8088884Y7099808D01*
X8093049Y7091451D01*
X8083321Y7088682D01*
X8069376Y7074738D01*
X8049895Y7063612D01*
X8031784Y7053859D01*
X8010906Y7049668D01*
X7994192Y7041311D01*
X8020634Y7088682D01*
X8022031Y7102602D01*
X8281034Y7088682D02*
G01*
X8315858Y7088682D01*
X8332546Y7083094D01*
X8363204Y7051065D01*
X8363204Y7017638D01*
X8335340Y6998157D01*
X8306104Y6981444D01*
X8271281Y6970318D01*
X8237880Y6957771D01*
X8204454Y6956374D01*
X8191906Y6963333D01*
X8193303Y6977278D01*
X8205850Y7017638D01*
X8229523Y7049668D01*
X8265718Y7077532D01*
X8281034Y7088682D01*
X8296351Y7136003D02*
G01*
X8310270Y7130440D01*
X8320024Y7119289D01*
X8321420Y7112330D01*
X8340928Y7106767D01*
X8368766Y7087285D01*
X8392439Y7067778D01*
X8399399Y7041311D01*
X8396630Y7023227D01*
X8381288Y6995363D01*
X8354847Y6974484D01*
X8335340Y6955002D01*
X8299145Y6946620D01*
X8272678Y6929932D01*
X8232292Y6924344D01*
X8200288Y6924344D01*
X8176590Y6939661D01*
X8162670Y6966127D01*
X8164068Y6993991D01*
X8171027Y7027392D01*
X8175218Y7038543D01*
X8212810Y7076135D01*
X8265718Y7120712D01*
X8294979Y7136003D01*
D13*
X5600700Y10718800D02*
G01*
X3314702Y10718800D01*
X3314702Y6527807D01*
X5600700Y6527807D01*
X5600700Y10718800D01*
X5092700Y8051800D02*
G01*
X5092700Y6527800D01*
X3822700Y6527800D01*
X3822700Y8051800D01*
X5092700Y8051800D01*
D11*
X4445000Y5422900D02*
G01*
X4229100Y5422900D01*
X4229100Y5168900D01*
X8089900Y5168900D01*
X8089900Y5422900D01*
X8064500Y5422900D01*
D14*
X8064500Y5422900D02*
G01*
X4445000Y5422900D01*
D13*
X6540500Y11455400D02*
G01*
X8740503Y11455400D01*
X8740503Y9455398D01*
X7640500Y9455398D01*
X6540500Y9455398D01*
X6540500Y11455400D01*
X6616700Y11379200D02*
G01*
X8664303Y11379200D01*
X8664300Y9804400D01*
X6616700Y9804400D01*
X6616700Y11379200D01*
X5092700Y12153900D02*
G01*
X7429500Y12153900D01*
X7429500Y11849100D01*
X5092700Y11849100D01*
X5092700Y12153900D01*
G75*
G01
X7913192Y10566400D02*
G03X7913192Y10566400I-241300J0D01*
M02*
