M48
METRIC,LZ,000.000
;FILE_FORMAT=3:3
;TYPE=PLATED
;Layer: PTH_Through
;EasyEDA v6.5.42, 2024-04-05 23:01:38
;9a974a588d324e8b8ed75c96a1a2608a,45826c4407594220944428adbfc87ba6,10
;Gerber Generator version 0.2
;Holesize 1 = 0.901 mm
T01C0.901
;Holesize 2 = 0.915 mm
T02C0.915
;Holesize 3 = 1.000 mm
T03C1.000
;Holesize 4 = 1.022 mm
T04C1.022
;Holesize 5 = 1.101 mm
T05C1.101
;Holesize 6 = 1.200 mm
T06C1.200
%
G05
G90
T01
X049901Y056769
X042301Y056769
X046101Y056769
T02
X055372Y109538
X070739Y109538
X068199Y109538
X065659Y109538
X063119Y109538
X060579Y109538
X058039Y109538
T03
X083644Y063956G85X083644Y063956
X083644Y066496G85X083644Y066496
X083644Y069036G85X083644Y069036
X083644Y071576G85X083644Y071576
X083644Y074116G85X083644Y074116
X083644Y076656G85X083644Y076656
X083644Y079196G85X083644Y079196
X083644Y081736G85X083644Y081736
X083644Y084276G85X083644Y084276
X083644Y086816G85X083644Y086816
X083644Y089356G85X083644Y089356
X083644Y091896G85X083644Y091896
X083644Y094436G85X083644Y094436
X083644Y096976G85X083644Y096976
X083644Y099516G85X083644Y099516
X058874Y099516G85X058874Y099516
X058874Y096976G85X058874Y096976
X058874Y094436G85X058874Y094436
X058874Y091896G85X058874Y091896
X058874Y089356G85X058874Y089356
X058874Y086816G85X058874Y086816
X058874Y084276G85X058874Y084276
X058874Y081736G85X058874Y081736
X058874Y079196G85X058874Y079196
X058874Y076656G85X058874Y076656
X058874Y074116G85X058874Y074116
X058874Y071576G85X058874Y071576
X058874Y069036G85X058874Y069036
X058874Y066496G85X058874Y066496
X058874Y063956G85X058874Y063956
X024514Y090678G85X024508Y090678
X024514Y088138G85X024508Y088138
X024511Y085601G85X024511Y085595
X031623Y062992
X031623Y065532
T04
X032131Y094107
X034671Y094107
X037211Y094107
X039751Y094107
X042291Y094107
X044831Y094107
X047371Y094107
X049911Y094107
T05
X090932Y099695
X090932Y097155
X090932Y094615
X090932Y092075
X090932Y089535
X090932Y086995
X090932Y084455
X090932Y081915
X090932Y079375
X090932Y076835
X090932Y074295
X090932Y071755
X090932Y069215
X090932Y066675
X090932Y064135
T06
X032385Y079121
X034925Y079121
X037465Y079121
M30
