G04 Layer: TopSolderMaskLayer*
G04 EasyEDA v6.5.42, 2024-04-05 23:01:38*
G04 9a974a588d324e8b8ed75c96a1a2608a,45826c4407594220944428adbfc87ba6,10*
G04 Gerber Generator version 0.2*
G04 Scale: 100 percent, Rotated: No, Reflected: No *
G04 Dimensions in millimeters *
G04 leading zeros omitted , absolute positions ,4 integer and 5 decimal *
%FSLAX45Y45*%
%MOMM*%

%AMMACRO1*1,1,$1,$2,$3*1,1,$1,$4,$5*1,1,$1,0-$2,0-$3*1,1,$1,0-$4,0-$5*20,1,$1,$2,$3,$4,$5,0*20,1,$1,$4,$5,0-$2,0-$3,0*20,1,$1,0-$2,0-$3,0-$4,0-$5,0*20,1,$1,0-$4,0-$5,$2,$3,0*4,1,4,$2,$3,$4,$5,0-$2,0-$3,0-$4,0-$5,$2,$3,0*%
%ADD10C,2.0320*%
%ADD11C,1.8016*%
%ADD12R,1.6764X1.8016*%
%ADD13MACRO1,0.2032X-0.8166X0.8166X0.8166X0.8166*%
%ADD14C,1.8364*%
%ADD15C,1.6256*%
%ADD16C,1.7272*%
%ADD17MACRO1,0.1016X-0.8999X0.8999X0.8999X0.8999*%
%ADD18C,1.9016*%
%ADD19MACRO1,0.1016X0.7874X-0.7874X-0.7874X-0.7874*%
%ADD20C,1.6764*%
%ADD21R,1.7016X1.7016*%
%ADD22C,1.7016*%
%ADD23C,1.9812*%

%LPD*%
D10*
G01*
X8364423Y6395593D03*
G01*
X8364423Y6649593D03*
G01*
X8364423Y6903593D03*
G01*
X8364423Y7157593D03*
G01*
X8364423Y7411593D03*
G01*
X8364423Y7665593D03*
G01*
X8364423Y7919593D03*
G01*
X8364423Y8173593D03*
G01*
X8364423Y8427593D03*
G01*
X8364423Y8681593D03*
G01*
X8364423Y8935593D03*
G01*
X8364423Y9189593D03*
G01*
X8364423Y9443593D03*
G01*
X8364423Y9697593D03*
G01*
X8364423Y9951593D03*
G01*
X5887415Y9951593D03*
G01*
X5887415Y9697593D03*
G01*
X5887415Y9443593D03*
G01*
X5887415Y9189593D03*
G01*
X5887415Y8935593D03*
G01*
X5887415Y8681593D03*
G01*
X5887415Y8427593D03*
G01*
X5887415Y8173593D03*
G01*
X5887415Y7919593D03*
G01*
X5887415Y7665593D03*
G01*
X5887415Y7411593D03*
G01*
X5887415Y7157593D03*
G01*
X5887415Y6903593D03*
G01*
X5887415Y6649593D03*
G01*
X5887415Y6395593D03*
D11*
G01*
X9093200Y9969500D03*
G01*
X9093200Y9715500D03*
G01*
X9093200Y9461500D03*
G01*
X9093200Y9207500D03*
G01*
X9093200Y8953500D03*
G01*
X9093200Y8699500D03*
G01*
X9093200Y8445500D03*
G01*
X9093200Y8191500D03*
G01*
X9093200Y7937500D03*
G01*
X9093200Y7683500D03*
G01*
X9093200Y7429500D03*
G01*
X9093200Y7175500D03*
G01*
X9093200Y6921500D03*
G01*
X9093200Y6667500D03*
D12*
G01*
X9093200Y6413500D03*
D13*
G01*
X3213100Y9410700D03*
D14*
G01*
X3467100Y9410700D03*
G01*
X3721100Y9410700D03*
G01*
X3975100Y9410700D03*
G01*
X4229100Y9410700D03*
G01*
X4483100Y9410700D03*
G01*
X4737100Y9410700D03*
G01*
X4991100Y9410700D03*
D15*
G01*
X5537200Y10953750D03*
D16*
G01*
X7073900Y10953750D03*
G01*
X6819900Y10953750D03*
G01*
X6565900Y10953750D03*
G01*
X6311900Y10953750D03*
G01*
X6057900Y10953750D03*
G01*
X5803900Y10953750D03*
D17*
G01*
X3238500Y7912100D03*
D18*
G01*
X3492500Y7912100D03*
G01*
X3746500Y7912100D03*
D19*
G01*
X2451100Y9067800D03*
D20*
G01*
X2451100Y8813800D03*
D15*
G01*
X2451100Y8559800D03*
D21*
G01*
X3162300Y6299200D03*
D22*
G01*
X3162300Y6553200D03*
D23*
G01*
X4990084Y5676900D03*
G01*
X4230115Y5676900D03*
G01*
X4610100Y5676900D03*
M02*
