G04 Layer: TopSilkscreenLayer*
G04 EasyEDA v6.5.42, 2024-04-05 23:01:38*
G04 9a974a588d324e8b8ed75c96a1a2608a,45826c4407594220944428adbfc87ba6,10*
G04 Gerber Generator version 0.2*
G04 Scale: 100 percent, Rotated: No, Reflected: No *
G04 Dimensions in millimeters *
G04 leading zeros omitted , absolute positions ,4 integer and 5 decimal *
%FSLAX45Y45*%
%MOMM*%

%ADD10C,0.1524*%
%ADD11C,0.0813*%
%ADD12C,0.1544*%
%ADD13C,0.2032*%
%ADD14C,0.2540*%
%ADD15C,0.2030*%
%ADD16C,0.0170*%

%LPD*%
D10*
X7112000Y10732515D02*
G01*
X7112000Y10623550D01*
X7112000Y10732515D02*
G01*
X7153656Y10623550D01*
X7195058Y10732515D02*
G01*
X7153656Y10623550D01*
X7195058Y10732515D02*
G01*
X7195058Y10623550D01*
X7229347Y10711687D02*
G01*
X7239761Y10717021D01*
X7255509Y10732515D01*
X7255509Y10623550D01*
D11*
X7948599Y6436179D02*
G01*
X7999399Y6436179D01*
X7971713Y6399349D01*
X7985683Y6399349D01*
X7994827Y6394777D01*
X7999399Y6389951D01*
X8003971Y6376235D01*
X8003971Y6367091D01*
X7999399Y6353121D01*
X7990255Y6343977D01*
X7976285Y6339151D01*
X7962569Y6339151D01*
X7948599Y6343977D01*
X7944027Y6348549D01*
X7939455Y6357693D01*
X8034451Y6436179D02*
G01*
X8071535Y6339151D01*
X8108365Y6436179D02*
G01*
X8071535Y6339151D01*
X8148243Y6436179D02*
G01*
X8199043Y6436179D01*
X8171357Y6399349D01*
X8185073Y6399349D01*
X8194471Y6394777D01*
X8199043Y6389951D01*
X8203615Y6376235D01*
X8203615Y6367091D01*
X8199043Y6353121D01*
X8189645Y6343977D01*
X8175929Y6339151D01*
X8161959Y6339151D01*
X8148243Y6343977D01*
X8143671Y6348549D01*
X8138845Y6357693D01*
X8013369Y6667065D02*
G01*
X8008543Y6676463D01*
X7999399Y6685607D01*
X7990255Y6690179D01*
X7971713Y6690179D01*
X7962569Y6685607D01*
X7953171Y6676463D01*
X7948599Y6667065D01*
X7944027Y6653349D01*
X7944027Y6630235D01*
X7948599Y6616265D01*
X7953171Y6607121D01*
X7962569Y6597977D01*
X7971713Y6593151D01*
X7990255Y6593151D01*
X7999399Y6597977D01*
X8008543Y6607121D01*
X8013369Y6616265D01*
X8013369Y6630235D01*
X7990255Y6630235D02*
G01*
X8013369Y6630235D01*
X8043849Y6690179D02*
G01*
X8043849Y6593151D01*
X8043849Y6690179D02*
G01*
X8108365Y6593151D01*
X8108365Y6690179D02*
G01*
X8108365Y6593151D01*
X8138845Y6690179D02*
G01*
X8138845Y6593151D01*
X8138845Y6690179D02*
G01*
X8171103Y6690179D01*
X8185073Y6685607D01*
X8194217Y6676463D01*
X8199043Y6667065D01*
X8203615Y6653349D01*
X8203615Y6630235D01*
X8199043Y6616265D01*
X8194217Y6607121D01*
X8185073Y6597977D01*
X8171103Y6593151D01*
X8138845Y6593151D01*
X7990255Y6944344D02*
G01*
X7990255Y6847316D01*
X7990255Y6944344D02*
G01*
X8022513Y6944344D01*
X8036483Y6939518D01*
X8045627Y6930374D01*
X8050199Y6921230D01*
X8055025Y6907260D01*
X8055025Y6884146D01*
X8050199Y6870430D01*
X8045627Y6861032D01*
X8036483Y6851888D01*
X8022513Y6847316D01*
X7990255Y6847316D01*
X8085505Y6925802D02*
G01*
X8094649Y6930374D01*
X8108365Y6944344D01*
X8108365Y6847316D01*
X8194471Y6944344D02*
G01*
X8148243Y6944344D01*
X8143671Y6902688D01*
X8148243Y6907260D01*
X8161959Y6911832D01*
X8175929Y6911832D01*
X8189645Y6907260D01*
X8199043Y6898116D01*
X8203615Y6884146D01*
X8203615Y6875002D01*
X8199043Y6861032D01*
X8189645Y6851888D01*
X8175929Y6847316D01*
X8161959Y6847316D01*
X8148243Y6851888D01*
X8143671Y6856460D01*
X8138845Y6865858D01*
X8043849Y7198344D02*
G01*
X8043849Y7101316D01*
X8043849Y7198344D02*
G01*
X8076107Y7198344D01*
X8090077Y7193518D01*
X8099221Y7184374D01*
X8103793Y7175230D01*
X8108619Y7161260D01*
X8108619Y7138146D01*
X8103793Y7124430D01*
X8099221Y7115032D01*
X8090077Y7105888D01*
X8076107Y7101316D01*
X8043849Y7101316D01*
X8143671Y7175230D02*
G01*
X8143671Y7179802D01*
X8148243Y7188946D01*
X8152815Y7193518D01*
X8161959Y7198344D01*
X8180501Y7198344D01*
X8189899Y7193518D01*
X8194471Y7188946D01*
X8199043Y7179802D01*
X8199043Y7170658D01*
X8194471Y7161260D01*
X8185073Y7147544D01*
X8139099Y7101316D01*
X8203615Y7101316D01*
X8039277Y7452344D02*
G01*
X8039277Y7355316D01*
X8039277Y7452344D02*
G01*
X8071535Y7452344D01*
X8085505Y7447518D01*
X8094649Y7438374D01*
X8099221Y7429230D01*
X8104047Y7415260D01*
X8104047Y7392146D01*
X8099221Y7378430D01*
X8094649Y7369032D01*
X8085505Y7359888D01*
X8071535Y7355316D01*
X8039277Y7355316D01*
X8180501Y7452344D02*
G01*
X8134527Y7387574D01*
X8203615Y7387574D01*
X8180501Y7452344D02*
G01*
X8180501Y7355316D01*
X7994827Y7706344D02*
G01*
X7994827Y7609316D01*
X7994827Y7706344D02*
G01*
X8027085Y7706344D01*
X8041055Y7701518D01*
X8050199Y7692374D01*
X8054771Y7683230D01*
X8059597Y7669260D01*
X8059597Y7646146D01*
X8054771Y7632430D01*
X8050199Y7623032D01*
X8041055Y7613888D01*
X8027085Y7609316D01*
X7994827Y7609316D01*
X8090077Y7687802D02*
G01*
X8099221Y7692374D01*
X8112937Y7706344D01*
X8112937Y7609316D01*
X8199043Y7692374D02*
G01*
X8194217Y7701518D01*
X8180501Y7706344D01*
X8171357Y7706344D01*
X8157387Y7701518D01*
X8148243Y7687802D01*
X8143417Y7664688D01*
X8143417Y7641574D01*
X8148243Y7623032D01*
X8157387Y7613888D01*
X8171357Y7609316D01*
X8175929Y7609316D01*
X8189645Y7613888D01*
X8199043Y7623032D01*
X8203615Y7637002D01*
X8203615Y7641574D01*
X8199043Y7655544D01*
X8189645Y7664688D01*
X8175929Y7669260D01*
X8171357Y7669260D01*
X8157387Y7664688D01*
X8148243Y7655544D01*
X8143417Y7641574D01*
X7990255Y7960344D02*
G01*
X7990255Y7863316D01*
X7990255Y7960344D02*
G01*
X8022513Y7960344D01*
X8036483Y7955518D01*
X8045627Y7946374D01*
X8050199Y7937230D01*
X8055025Y7923260D01*
X8055025Y7900146D01*
X8050199Y7886430D01*
X8045627Y7877032D01*
X8036483Y7867888D01*
X8022513Y7863316D01*
X7990255Y7863316D01*
X8085505Y7941802D02*
G01*
X8094649Y7946374D01*
X8108365Y7960344D01*
X8108365Y7863316D01*
X8203615Y7960344D02*
G01*
X8157387Y7863316D01*
X8138845Y7960344D02*
G01*
X8203615Y7960344D01*
X8043849Y8214344D02*
G01*
X8043849Y8117316D01*
X8043849Y8214344D02*
G01*
X8076107Y8214344D01*
X8090077Y8209518D01*
X8099221Y8200374D01*
X8103793Y8191230D01*
X8108619Y8177260D01*
X8108619Y8154146D01*
X8103793Y8140430D01*
X8099221Y8131032D01*
X8090077Y8121888D01*
X8076107Y8117316D01*
X8043849Y8117316D01*
X8194471Y8214344D02*
G01*
X8148243Y8214344D01*
X8143671Y8172688D01*
X8148243Y8177260D01*
X8161959Y8181832D01*
X8175929Y8181832D01*
X8189899Y8177260D01*
X8199043Y8168116D01*
X8203615Y8154146D01*
X8203615Y8145002D01*
X8199043Y8131032D01*
X8189899Y8121888D01*
X8175929Y8117316D01*
X8161959Y8117316D01*
X8148243Y8121888D01*
X8143671Y8126460D01*
X8139099Y8135858D01*
X7990255Y8468344D02*
G01*
X7990255Y8371316D01*
X7990255Y8468344D02*
G01*
X8022513Y8468344D01*
X8036483Y8463518D01*
X8045627Y8454374D01*
X8050199Y8445230D01*
X8055025Y8431260D01*
X8055025Y8408146D01*
X8050199Y8394430D01*
X8045627Y8385032D01*
X8036483Y8375888D01*
X8022513Y8371316D01*
X7990255Y8371316D01*
X8085505Y8449802D02*
G01*
X8094649Y8454374D01*
X8108365Y8468344D01*
X8108365Y8371316D01*
X8161959Y8468344D02*
G01*
X8148243Y8463518D01*
X8143671Y8454374D01*
X8143671Y8445230D01*
X8148243Y8435832D01*
X8157387Y8431260D01*
X8175929Y8426688D01*
X8189645Y8422116D01*
X8199043Y8412718D01*
X8203615Y8403574D01*
X8203615Y8389858D01*
X8199043Y8380460D01*
X8194471Y8375888D01*
X8180501Y8371316D01*
X8161959Y8371316D01*
X8148243Y8375888D01*
X8143671Y8380460D01*
X8138845Y8389858D01*
X8138845Y8403574D01*
X8143671Y8412718D01*
X8152815Y8422116D01*
X8166785Y8426688D01*
X8185073Y8431260D01*
X8194471Y8435832D01*
X8199043Y8445230D01*
X8199043Y8454374D01*
X8194471Y8463518D01*
X8180501Y8468344D01*
X8161959Y8468344D01*
X7994827Y8722344D02*
G01*
X7994827Y8625316D01*
X7994827Y8722344D02*
G01*
X8027085Y8722344D01*
X8041055Y8717518D01*
X8050199Y8708374D01*
X8054771Y8699230D01*
X8059597Y8685260D01*
X8059597Y8662146D01*
X8054771Y8648430D01*
X8050199Y8639032D01*
X8041055Y8629888D01*
X8027085Y8625316D01*
X7994827Y8625316D01*
X8090077Y8703802D02*
G01*
X8099221Y8708374D01*
X8112937Y8722344D01*
X8112937Y8625316D01*
X8203615Y8689832D02*
G01*
X8199043Y8676116D01*
X8189645Y8666718D01*
X8175929Y8662146D01*
X8171357Y8662146D01*
X8157387Y8666718D01*
X8148243Y8676116D01*
X8143417Y8689832D01*
X8143417Y8694658D01*
X8148243Y8708374D01*
X8157387Y8717518D01*
X8171357Y8722344D01*
X8175929Y8722344D01*
X8189645Y8717518D01*
X8199043Y8708374D01*
X8203615Y8689832D01*
X8203615Y8666718D01*
X8199043Y8643858D01*
X8189645Y8629888D01*
X8175929Y8625316D01*
X8166531Y8625316D01*
X8152815Y8629888D01*
X8148243Y8639032D01*
X7990255Y8976344D02*
G01*
X7990255Y8879316D01*
X7990255Y8976344D02*
G01*
X8022513Y8976344D01*
X8036483Y8971518D01*
X8045627Y8962374D01*
X8050199Y8953230D01*
X8055025Y8939260D01*
X8055025Y8916146D01*
X8050199Y8902430D01*
X8045627Y8893032D01*
X8036483Y8883888D01*
X8022513Y8879316D01*
X7990255Y8879316D01*
X8090077Y8953230D02*
G01*
X8090077Y8957802D01*
X8094649Y8966946D01*
X8099221Y8971518D01*
X8108365Y8976344D01*
X8126907Y8976344D01*
X8136305Y8971518D01*
X8140877Y8966946D01*
X8145449Y8957802D01*
X8145449Y8948658D01*
X8140877Y8939260D01*
X8131479Y8925544D01*
X8085505Y8879316D01*
X8150021Y8879316D01*
X8180501Y8957802D02*
G01*
X8189645Y8962374D01*
X8203615Y8976344D01*
X8203615Y8879316D01*
X7948599Y9230344D02*
G01*
X7948599Y9133316D01*
X7948599Y9230344D02*
G01*
X7990255Y9230344D01*
X8003971Y9225518D01*
X8008543Y9220946D01*
X8013369Y9211802D01*
X8013369Y9202658D01*
X8008543Y9193260D01*
X8003971Y9188688D01*
X7990255Y9184116D01*
X7948599Y9184116D01*
X7980857Y9184116D02*
G01*
X8013369Y9133316D01*
X8043849Y9230344D02*
G01*
X8108365Y9133316D01*
X8108365Y9230344D02*
G01*
X8043849Y9133316D01*
X8166531Y9230344D02*
G01*
X8152815Y9225518D01*
X8143417Y9211802D01*
X8138845Y9188688D01*
X8138845Y9174718D01*
X8143417Y9151858D01*
X8152815Y9137888D01*
X8166531Y9133316D01*
X8175929Y9133316D01*
X8189645Y9137888D01*
X8198789Y9151858D01*
X8203615Y9174718D01*
X8203615Y9188688D01*
X8198789Y9211802D01*
X8189645Y9225518D01*
X8175929Y9230344D01*
X8166531Y9230344D01*
X7980857Y9484344D02*
G01*
X7980857Y9387316D01*
X7948599Y9484344D02*
G01*
X8013369Y9484344D01*
X8043849Y9484344D02*
G01*
X8108365Y9387316D01*
X8108365Y9484344D02*
G01*
X8043849Y9387316D01*
X8166531Y9484344D02*
G01*
X8152815Y9479518D01*
X8143417Y9465802D01*
X8138845Y9442688D01*
X8138845Y9428718D01*
X8143417Y9405858D01*
X8152815Y9391888D01*
X8166531Y9387316D01*
X8175929Y9387316D01*
X8189645Y9391888D01*
X8198789Y9405858D01*
X8203615Y9428718D01*
X8203615Y9442688D01*
X8198789Y9465802D01*
X8189645Y9479518D01*
X8175929Y9484344D01*
X8166531Y9484344D01*
X7948599Y9738344D02*
G01*
X7948599Y9641316D01*
X7948599Y9738344D02*
G01*
X7980857Y9738344D01*
X7994827Y9733518D01*
X8003971Y9724374D01*
X8008543Y9715230D01*
X8013369Y9701260D01*
X8013369Y9678146D01*
X8008543Y9664430D01*
X8003971Y9655032D01*
X7994827Y9645888D01*
X7980857Y9641316D01*
X7948599Y9641316D01*
X8048421Y9715230D02*
G01*
X8048421Y9719802D01*
X8052993Y9728946D01*
X8057565Y9733518D01*
X8066709Y9738344D01*
X8085251Y9738344D01*
X8094649Y9733518D01*
X8099221Y9728946D01*
X8103793Y9719802D01*
X8103793Y9710658D01*
X8099221Y9701260D01*
X8089823Y9687544D01*
X8043849Y9641316D01*
X8108365Y9641316D01*
X8143417Y9715230D02*
G01*
X8143417Y9719802D01*
X8147989Y9728946D01*
X8152815Y9733518D01*
X8161959Y9738344D01*
X8180501Y9738344D01*
X8189645Y9733518D01*
X8194217Y9728946D01*
X8198789Y9719802D01*
X8198789Y9710658D01*
X8194217Y9701260D01*
X8185073Y9687544D01*
X8138845Y9641316D01*
X8203615Y9641316D01*
X7948599Y9992344D02*
G01*
X7948599Y9895316D01*
X7948599Y9992344D02*
G01*
X7980857Y9992344D01*
X7994827Y9987518D01*
X8003971Y9978374D01*
X8008543Y9969230D01*
X8013369Y9955260D01*
X8013369Y9932146D01*
X8008543Y9918430D01*
X8003971Y9909032D01*
X7994827Y9899888D01*
X7980857Y9895316D01*
X7948599Y9895316D01*
X8048421Y9969230D02*
G01*
X8048421Y9973802D01*
X8052993Y9982946D01*
X8057565Y9987518D01*
X8066709Y9992344D01*
X8085251Y9992344D01*
X8094649Y9987518D01*
X8099221Y9982946D01*
X8103793Y9973802D01*
X8103793Y9964658D01*
X8099221Y9955260D01*
X8089823Y9941544D01*
X8043849Y9895316D01*
X8108365Y9895316D01*
X8147989Y9992344D02*
G01*
X8198789Y9992344D01*
X8171103Y9955260D01*
X8185073Y9955260D01*
X8194217Y9950688D01*
X8198789Y9946116D01*
X8203615Y9932146D01*
X8203615Y9923002D01*
X8198789Y9909032D01*
X8189645Y9899888D01*
X8175929Y9895316D01*
X8161959Y9895316D01*
X8147989Y9899888D01*
X8143417Y9904460D01*
X8138845Y9913858D01*
X6059881Y6436357D02*
G01*
X6096711Y6339329D01*
X6133795Y6436357D02*
G01*
X6096711Y6339329D01*
X6164275Y6436357D02*
G01*
X6164275Y6339329D01*
X6194755Y6436357D02*
G01*
X6194755Y6339329D01*
X6194755Y6436357D02*
G01*
X6259271Y6339329D01*
X6259271Y6436357D02*
G01*
X6259271Y6339329D01*
X6129223Y6667243D02*
G01*
X6124397Y6676387D01*
X6115253Y6685531D01*
X6106109Y6690357D01*
X6087567Y6690357D01*
X6078423Y6685531D01*
X6069025Y6676387D01*
X6064453Y6667243D01*
X6059881Y6653273D01*
X6059881Y6630159D01*
X6064453Y6616443D01*
X6069025Y6607045D01*
X6078423Y6597901D01*
X6087567Y6593329D01*
X6106109Y6593329D01*
X6115253Y6597901D01*
X6124397Y6607045D01*
X6129223Y6616443D01*
X6129223Y6630159D01*
X6106109Y6630159D02*
G01*
X6129223Y6630159D01*
X6159703Y6690357D02*
G01*
X6159703Y6593329D01*
X6159703Y6690357D02*
G01*
X6224219Y6593329D01*
X6224219Y6690357D02*
G01*
X6224219Y6593329D01*
X6254699Y6690357D02*
G01*
X6254699Y6593329D01*
X6254699Y6690357D02*
G01*
X6286957Y6690357D01*
X6300927Y6685531D01*
X6310071Y6676387D01*
X6314643Y6667243D01*
X6319469Y6653273D01*
X6319469Y6630159D01*
X6314643Y6616443D01*
X6310071Y6607045D01*
X6300927Y6597901D01*
X6286957Y6593329D01*
X6254699Y6593329D01*
X6059817Y6944344D02*
G01*
X6059817Y6847316D01*
X6059817Y6944344D02*
G01*
X6092075Y6944344D01*
X6106045Y6939518D01*
X6115189Y6930374D01*
X6119761Y6921230D01*
X6124587Y6907260D01*
X6124587Y6884146D01*
X6119761Y6870430D01*
X6115189Y6861032D01*
X6106045Y6851888D01*
X6092075Y6847316D01*
X6059817Y6847316D01*
X6155067Y6925802D02*
G01*
X6164211Y6930374D01*
X6177927Y6944344D01*
X6177927Y6847316D01*
X6217805Y6944344D02*
G01*
X6268605Y6944344D01*
X6240919Y6907260D01*
X6254635Y6907260D01*
X6264033Y6902688D01*
X6268605Y6898116D01*
X6273177Y6884146D01*
X6273177Y6875002D01*
X6268605Y6861032D01*
X6259207Y6851888D01*
X6245491Y6847316D01*
X6231521Y6847316D01*
X6217805Y6851888D01*
X6213233Y6856460D01*
X6208407Y6865858D01*
X6059817Y7198344D02*
G01*
X6059817Y7101316D01*
X6059817Y7198344D02*
G01*
X6092075Y7198344D01*
X6106045Y7193518D01*
X6115189Y7184374D01*
X6119761Y7175230D01*
X6124587Y7161260D01*
X6124587Y7138146D01*
X6119761Y7124430D01*
X6115189Y7115032D01*
X6106045Y7105888D01*
X6092075Y7101316D01*
X6059817Y7101316D01*
X6155067Y7179802D02*
G01*
X6164211Y7184374D01*
X6177927Y7198344D01*
X6177927Y7101316D01*
X6213233Y7175230D02*
G01*
X6213233Y7179802D01*
X6217805Y7188946D01*
X6222377Y7193518D01*
X6231521Y7198344D01*
X6250063Y7198344D01*
X6259207Y7193518D01*
X6264033Y7188946D01*
X6268605Y7179802D01*
X6268605Y7170658D01*
X6264033Y7161260D01*
X6254635Y7147544D01*
X6208407Y7101316D01*
X6273177Y7101316D01*
X6059817Y7452344D02*
G01*
X6059817Y7355316D01*
X6059817Y7452344D02*
G01*
X6092075Y7452344D01*
X6106045Y7447518D01*
X6115189Y7438374D01*
X6119761Y7429230D01*
X6124587Y7415260D01*
X6124587Y7392146D01*
X6119761Y7378430D01*
X6115189Y7369032D01*
X6106045Y7359888D01*
X6092075Y7355316D01*
X6059817Y7355316D01*
X6155067Y7433802D02*
G01*
X6164211Y7438374D01*
X6177927Y7452344D01*
X6177927Y7355316D01*
X6254635Y7452344D02*
G01*
X6208407Y7387574D01*
X6277749Y7387574D01*
X6254635Y7452344D02*
G01*
X6254635Y7355316D01*
X6059817Y7706344D02*
G01*
X6059817Y7609316D01*
X6059817Y7706344D02*
G01*
X6092075Y7706344D01*
X6106045Y7701518D01*
X6115189Y7692374D01*
X6119761Y7683230D01*
X6124587Y7669260D01*
X6124587Y7646146D01*
X6119761Y7632430D01*
X6115189Y7623032D01*
X6106045Y7613888D01*
X6092075Y7609316D01*
X6059817Y7609316D01*
X6159639Y7683230D02*
G01*
X6159639Y7687802D01*
X6164211Y7696946D01*
X6168783Y7701518D01*
X6177927Y7706344D01*
X6196469Y7706344D01*
X6205867Y7701518D01*
X6210439Y7696946D01*
X6215011Y7687802D01*
X6215011Y7678658D01*
X6210439Y7669260D01*
X6201041Y7655544D01*
X6155067Y7609316D01*
X6219583Y7609316D01*
X6314833Y7706344D02*
G01*
X6268605Y7609316D01*
X6250063Y7706344D02*
G01*
X6314833Y7706344D01*
X6059817Y7960344D02*
G01*
X6059817Y7863316D01*
X6059817Y7960344D02*
G01*
X6092075Y7960344D01*
X6106045Y7955518D01*
X6115189Y7946374D01*
X6119761Y7937230D01*
X6124587Y7923260D01*
X6124587Y7900146D01*
X6119761Y7886430D01*
X6115189Y7877032D01*
X6106045Y7867888D01*
X6092075Y7863316D01*
X6059817Y7863316D01*
X6159639Y7937230D02*
G01*
X6159639Y7941802D01*
X6164211Y7950946D01*
X6168783Y7955518D01*
X6177927Y7960344D01*
X6196469Y7960344D01*
X6205867Y7955518D01*
X6210439Y7950946D01*
X6215011Y7941802D01*
X6215011Y7932658D01*
X6210439Y7923260D01*
X6201041Y7909544D01*
X6155067Y7863316D01*
X6219583Y7863316D01*
X6305435Y7946374D02*
G01*
X6300863Y7955518D01*
X6287147Y7960344D01*
X6277749Y7960344D01*
X6264033Y7955518D01*
X6254635Y7941802D01*
X6250063Y7918688D01*
X6250063Y7895574D01*
X6254635Y7877032D01*
X6264033Y7867888D01*
X6277749Y7863316D01*
X6282321Y7863316D01*
X6296291Y7867888D01*
X6305435Y7877032D01*
X6310007Y7891002D01*
X6310007Y7895574D01*
X6305435Y7909544D01*
X6296291Y7918688D01*
X6282321Y7923260D01*
X6277749Y7923260D01*
X6264033Y7918688D01*
X6254635Y7909544D01*
X6250063Y7895574D01*
X6059817Y8214344D02*
G01*
X6059817Y8117316D01*
X6059817Y8214344D02*
G01*
X6092075Y8214344D01*
X6106045Y8209518D01*
X6115189Y8200374D01*
X6119761Y8191230D01*
X6124587Y8177260D01*
X6124587Y8154146D01*
X6119761Y8140430D01*
X6115189Y8131032D01*
X6106045Y8121888D01*
X6092075Y8117316D01*
X6059817Y8117316D01*
X6159639Y8191230D02*
G01*
X6159639Y8195802D01*
X6164211Y8204946D01*
X6168783Y8209518D01*
X6177927Y8214344D01*
X6196469Y8214344D01*
X6205867Y8209518D01*
X6210439Y8204946D01*
X6215011Y8195802D01*
X6215011Y8186658D01*
X6210439Y8177260D01*
X6201041Y8163544D01*
X6155067Y8117316D01*
X6219583Y8117316D01*
X6305435Y8214344D02*
G01*
X6259207Y8214344D01*
X6254635Y8172688D01*
X6259207Y8177260D01*
X6273177Y8181832D01*
X6287147Y8181832D01*
X6300863Y8177260D01*
X6310007Y8168116D01*
X6314833Y8154146D01*
X6314833Y8145002D01*
X6310007Y8131032D01*
X6300863Y8121888D01*
X6287147Y8117316D01*
X6273177Y8117316D01*
X6259207Y8121888D01*
X6254635Y8126460D01*
X6250063Y8135858D01*
X6059817Y8468344D02*
G01*
X6059817Y8371316D01*
X6059817Y8468344D02*
G01*
X6092075Y8468344D01*
X6106045Y8463518D01*
X6115189Y8454374D01*
X6119761Y8445230D01*
X6124587Y8431260D01*
X6124587Y8408146D01*
X6119761Y8394430D01*
X6115189Y8385032D01*
X6106045Y8375888D01*
X6092075Y8371316D01*
X6059817Y8371316D01*
X6164211Y8468344D02*
G01*
X6215011Y8468344D01*
X6187325Y8431260D01*
X6201041Y8431260D01*
X6210439Y8426688D01*
X6215011Y8422116D01*
X6219583Y8408146D01*
X6219583Y8399002D01*
X6215011Y8385032D01*
X6205867Y8375888D01*
X6191897Y8371316D01*
X6177927Y8371316D01*
X6164211Y8375888D01*
X6159639Y8380460D01*
X6155067Y8389858D01*
X6259207Y8468344D02*
G01*
X6310007Y8468344D01*
X6282321Y8431260D01*
X6296291Y8431260D01*
X6305435Y8426688D01*
X6310007Y8422116D01*
X6314833Y8408146D01*
X6314833Y8399002D01*
X6310007Y8385032D01*
X6300863Y8375888D01*
X6287147Y8371316D01*
X6273177Y8371316D01*
X6259207Y8375888D01*
X6254635Y8380460D01*
X6250063Y8389858D01*
X6059817Y8722344D02*
G01*
X6059817Y8625316D01*
X6059817Y8722344D02*
G01*
X6092075Y8722344D01*
X6106045Y8717518D01*
X6115189Y8708374D01*
X6119761Y8699230D01*
X6124587Y8685260D01*
X6124587Y8662146D01*
X6119761Y8648430D01*
X6115189Y8639032D01*
X6106045Y8629888D01*
X6092075Y8625316D01*
X6059817Y8625316D01*
X6164211Y8722344D02*
G01*
X6215011Y8722344D01*
X6187325Y8685260D01*
X6201041Y8685260D01*
X6210439Y8680688D01*
X6215011Y8676116D01*
X6219583Y8662146D01*
X6219583Y8653002D01*
X6215011Y8639032D01*
X6205867Y8629888D01*
X6191897Y8625316D01*
X6177927Y8625316D01*
X6164211Y8629888D01*
X6159639Y8634460D01*
X6155067Y8643858D01*
X6254635Y8699230D02*
G01*
X6254635Y8703802D01*
X6259207Y8712946D01*
X6264033Y8717518D01*
X6273177Y8722344D01*
X6291719Y8722344D01*
X6300863Y8717518D01*
X6305435Y8712946D01*
X6310007Y8703802D01*
X6310007Y8694658D01*
X6305435Y8685260D01*
X6296291Y8671544D01*
X6250063Y8625316D01*
X6314833Y8625316D01*
X6059817Y8976344D02*
G01*
X6059817Y8879316D01*
X6059817Y8976344D02*
G01*
X6092075Y8976344D01*
X6106045Y8971518D01*
X6115189Y8962374D01*
X6119761Y8953230D01*
X6124587Y8939260D01*
X6124587Y8916146D01*
X6119761Y8902430D01*
X6115189Y8893032D01*
X6106045Y8883888D01*
X6092075Y8879316D01*
X6059817Y8879316D01*
X6164211Y8976344D02*
G01*
X6215011Y8976344D01*
X6187325Y8939260D01*
X6201041Y8939260D01*
X6210439Y8934688D01*
X6215011Y8930116D01*
X6219583Y8916146D01*
X6219583Y8907002D01*
X6215011Y8893032D01*
X6205867Y8883888D01*
X6191897Y8879316D01*
X6177927Y8879316D01*
X6164211Y8883888D01*
X6159639Y8888460D01*
X6155067Y8897858D01*
X6305435Y8976344D02*
G01*
X6259207Y8976344D01*
X6254635Y8934688D01*
X6259207Y8939260D01*
X6273177Y8943832D01*
X6287147Y8943832D01*
X6300863Y8939260D01*
X6310007Y8930116D01*
X6314833Y8916146D01*
X6314833Y8907002D01*
X6310007Y8893032D01*
X6300863Y8883888D01*
X6287147Y8879316D01*
X6273177Y8879316D01*
X6259207Y8883888D01*
X6254635Y8888460D01*
X6250063Y8897858D01*
X6059817Y9230344D02*
G01*
X6059817Y9133316D01*
X6059817Y9230344D02*
G01*
X6092075Y9230344D01*
X6106045Y9225518D01*
X6115189Y9216374D01*
X6119761Y9207230D01*
X6124587Y9193260D01*
X6124587Y9170146D01*
X6119761Y9156430D01*
X6115189Y9147032D01*
X6106045Y9137888D01*
X6092075Y9133316D01*
X6059817Y9133316D01*
X6164211Y9230344D02*
G01*
X6215011Y9230344D01*
X6187325Y9193260D01*
X6201041Y9193260D01*
X6210439Y9188688D01*
X6215011Y9184116D01*
X6219583Y9170146D01*
X6219583Y9161002D01*
X6215011Y9147032D01*
X6205867Y9137888D01*
X6191897Y9133316D01*
X6177927Y9133316D01*
X6164211Y9137888D01*
X6159639Y9142460D01*
X6155067Y9151858D01*
X6296291Y9230344D02*
G01*
X6250063Y9165574D01*
X6319405Y9165574D01*
X6296291Y9230344D02*
G01*
X6296291Y9133316D01*
X6059881Y9484357D02*
G01*
X6096711Y9387329D01*
X6133795Y9484357D02*
G01*
X6096711Y9387329D01*
X6164275Y9484357D02*
G01*
X6164275Y9387329D01*
X6164275Y9484357D02*
G01*
X6228791Y9387329D01*
X6228791Y9484357D02*
G01*
X6228791Y9387329D01*
X6059881Y9738357D02*
G01*
X6096711Y9641329D01*
X6133795Y9738357D02*
G01*
X6096711Y9641329D01*
X6164275Y9738357D02*
G01*
X6164275Y9641329D01*
X6164275Y9738357D02*
G01*
X6205677Y9738357D01*
X6219647Y9733531D01*
X6224219Y9728959D01*
X6228791Y9719815D01*
X6228791Y9705845D01*
X6224219Y9696701D01*
X6219647Y9692129D01*
X6205677Y9687557D01*
X6164275Y9687557D01*
X6059881Y9992357D02*
G01*
X6059881Y9895329D01*
X6059881Y9992357D02*
G01*
X6119825Y9992357D01*
X6059881Y9946129D02*
G01*
X6096711Y9946129D01*
X6059881Y9895329D02*
G01*
X6119825Y9895329D01*
X6150305Y9992357D02*
G01*
X6150305Y9895329D01*
X6150305Y9992357D02*
G01*
X6215075Y9895329D01*
X6215075Y9992357D02*
G01*
X6215075Y9895329D01*
D12*
X5951499Y10426938D02*
G01*
X5951499Y10255234D01*
X5951499Y10426938D02*
G01*
X6057925Y10426938D01*
X5951499Y10345150D02*
G01*
X6017031Y10345150D01*
X5951499Y10255234D02*
G01*
X6057925Y10255234D01*
X6226327Y10402300D02*
G01*
X6210071Y10418810D01*
X6185433Y10426938D01*
X6152667Y10426938D01*
X6128283Y10418810D01*
X6111773Y10402300D01*
X6111773Y10386044D01*
X6120155Y10369788D01*
X6128283Y10361406D01*
X6144539Y10353278D01*
X6193561Y10337022D01*
X6210071Y10328894D01*
X6218199Y10320512D01*
X6226327Y10304256D01*
X6226327Y10279618D01*
X6210071Y10263362D01*
X6185433Y10255234D01*
X6152667Y10255234D01*
X6128283Y10263362D01*
X6111773Y10279618D01*
X6280429Y10426938D02*
G01*
X6280429Y10255234D01*
X6280429Y10426938D02*
G01*
X6354089Y10426938D01*
X6378473Y10418810D01*
X6386855Y10410682D01*
X6394983Y10394172D01*
X6394983Y10369788D01*
X6386855Y10353278D01*
X6378473Y10345150D01*
X6354089Y10337022D01*
X6280429Y10337022D01*
X6465341Y10426938D02*
G01*
X6555257Y10426938D01*
X6506235Y10361406D01*
X6530873Y10361406D01*
X6547129Y10353278D01*
X6555257Y10345150D01*
X6563385Y10320512D01*
X6563385Y10304256D01*
X6555257Y10279618D01*
X6539001Y10263362D01*
X6514363Y10255234D01*
X6489979Y10255234D01*
X6465341Y10263362D01*
X6457213Y10271490D01*
X6448831Y10288000D01*
X6625615Y10386044D02*
G01*
X6625615Y10394172D01*
X6633743Y10410682D01*
X6642125Y10418810D01*
X6658381Y10426938D01*
X6691147Y10426938D01*
X6707403Y10418810D01*
X6715785Y10410682D01*
X6723913Y10394172D01*
X6723913Y10377916D01*
X6715785Y10361406D01*
X6699275Y10337022D01*
X6617487Y10255234D01*
X6732041Y10255234D01*
X6786143Y10328894D02*
G01*
X6933209Y10328894D01*
X6987311Y10426938D02*
G01*
X6987311Y10255234D01*
X6987311Y10426938D02*
G01*
X7044461Y10426938D01*
X7069099Y10418810D01*
X7085609Y10402300D01*
X7093737Y10386044D01*
X7101865Y10361406D01*
X7101865Y10320512D01*
X7093737Y10296128D01*
X7085609Y10279618D01*
X7069099Y10263362D01*
X7044461Y10255234D01*
X6987311Y10255234D01*
X7155967Y10426938D02*
G01*
X7155967Y10255234D01*
X7155967Y10426938D02*
G01*
X7262139Y10426938D01*
X7155967Y10345150D02*
G01*
X7221245Y10345150D01*
X7155967Y10255234D02*
G01*
X7262139Y10255234D01*
X7316241Y10426938D02*
G01*
X7381773Y10255234D01*
X7447051Y10426938D02*
G01*
X7381773Y10255234D01*
X7501153Y10426938D02*
G01*
X7501153Y10255234D01*
X7615707Y10426938D02*
G01*
X7501153Y10312384D01*
X7542047Y10353278D02*
G01*
X7615707Y10255234D01*
X7669555Y10426938D02*
G01*
X7669555Y10255234D01*
X7781061Y10426938D02*
G01*
X7781061Y10255234D01*
X7723657Y10426938D02*
G01*
X7838211Y10426938D01*
X7892313Y10328894D02*
G01*
X8039379Y10328894D01*
X8093481Y10426938D02*
G01*
X8159013Y10255234D01*
X8224291Y10426938D02*
G01*
X8159013Y10255234D01*
X8278393Y10394172D02*
G01*
X8294649Y10402300D01*
X8319287Y10426938D01*
X8319287Y10255234D01*
D10*
X8825484Y8191500D02*
G01*
X8934450Y8191500D01*
X8825484Y8191500D02*
G01*
X8825484Y8238236D01*
X8830563Y8253729D01*
X8835897Y8259063D01*
X8846311Y8264144D01*
X8861806Y8264144D01*
X8872220Y8259063D01*
X8877300Y8253729D01*
X8882634Y8238236D01*
X8882634Y8191500D01*
X8846311Y8298434D02*
G01*
X8840977Y8308847D01*
X8825484Y8324595D01*
X8934450Y8324595D01*
X4102100Y11075415D02*
G01*
X4102100Y10997437D01*
X4107179Y10981944D01*
X4117593Y10971529D01*
X4133341Y10966450D01*
X4143756Y10966450D01*
X4159250Y10971529D01*
X4169663Y10981944D01*
X4174743Y10997437D01*
X4174743Y11075415D01*
X4209034Y11054587D02*
G01*
X4219447Y11059921D01*
X4235195Y11075415D01*
X4235195Y10966450D01*
D13*
X3175761Y9610344D02*
G01*
X3175761Y9660381D01*
X3212084Y9632950D01*
X3212084Y9646665D01*
X3216656Y9655810D01*
X3221227Y9660381D01*
X3234690Y9664954D01*
X3243834Y9664954D01*
X3257550Y9660381D01*
X3266693Y9651237D01*
X3271265Y9637521D01*
X3271265Y9623805D01*
X3266693Y9610344D01*
X3262122Y9605771D01*
X3252977Y9601200D01*
X3175761Y9694926D02*
G01*
X3271265Y9731247D01*
X3175761Y9767570D02*
G01*
X3271265Y9731247D01*
X3175761Y9806686D02*
G01*
X3175761Y9856724D01*
X3212084Y9829292D01*
X3212084Y9843008D01*
X3216656Y9852152D01*
X3221227Y9856724D01*
X3234690Y9861295D01*
X3243834Y9861295D01*
X3257550Y9856724D01*
X3266693Y9847579D01*
X3271265Y9833863D01*
X3271265Y9820402D01*
X3266693Y9806686D01*
X3262122Y9802113D01*
X3252977Y9797542D01*
X3439668Y9669271D02*
G01*
X3430524Y9664954D01*
X3421634Y9655810D01*
X3417061Y9646665D01*
X3417061Y9628378D01*
X3421634Y9619487D01*
X3430524Y9610344D01*
X3439668Y9605771D01*
X3453384Y9601200D01*
X3475990Y9601200D01*
X3489706Y9605771D01*
X3498850Y9610344D01*
X3507993Y9619487D01*
X3512565Y9628378D01*
X3512565Y9646665D01*
X3507993Y9655810D01*
X3498850Y9664954D01*
X3489706Y9669271D01*
X3475990Y9669271D01*
X3475990Y9646665D02*
G01*
X3475990Y9669271D01*
X3417061Y9699497D02*
G01*
X3512565Y9699497D01*
X3417061Y9699497D02*
G01*
X3512565Y9762997D01*
X3417061Y9762997D02*
G01*
X3512565Y9762997D01*
X3417061Y9792970D02*
G01*
X3512565Y9792970D01*
X3417061Y9792970D02*
G01*
X3417061Y9824720D01*
X3421634Y9838436D01*
X3430524Y9847579D01*
X3439668Y9852152D01*
X3453384Y9856724D01*
X3475990Y9856724D01*
X3489706Y9852152D01*
X3498850Y9847579D01*
X3507993Y9838436D01*
X3512565Y9824720D01*
X3512565Y9792970D01*
X3697224Y9664954D02*
G01*
X3688334Y9655810D01*
X3683761Y9642094D01*
X3683761Y9623805D01*
X3688334Y9610344D01*
X3697224Y9601200D01*
X3706368Y9601200D01*
X3715511Y9605771D01*
X3720084Y9610344D01*
X3724656Y9619487D01*
X3733800Y9646665D01*
X3738118Y9655810D01*
X3742690Y9660381D01*
X3751834Y9664954D01*
X3765550Y9664954D01*
X3774693Y9655810D01*
X3779265Y9642094D01*
X3779265Y9623805D01*
X3774693Y9610344D01*
X3765550Y9601200D01*
X3706368Y9762997D02*
G01*
X3697224Y9758426D01*
X3688334Y9749281D01*
X3683761Y9740392D01*
X3683761Y9722104D01*
X3688334Y9712960D01*
X3697224Y9703815D01*
X3706368Y9699497D01*
X3720084Y9694926D01*
X3742690Y9694926D01*
X3756406Y9699497D01*
X3765550Y9703815D01*
X3774693Y9712960D01*
X3779265Y9722104D01*
X3779265Y9740392D01*
X3774693Y9749281D01*
X3765550Y9758426D01*
X3756406Y9762997D01*
X3683761Y9792970D02*
G01*
X3779265Y9792970D01*
X3779265Y9792970D02*
G01*
X3779265Y9847579D01*
X3925824Y9664954D02*
G01*
X3916934Y9655810D01*
X3912361Y9642094D01*
X3912361Y9623805D01*
X3916934Y9610344D01*
X3925824Y9601200D01*
X3934968Y9601200D01*
X3944111Y9605771D01*
X3948684Y9610344D01*
X3953256Y9619487D01*
X3962400Y9646665D01*
X3966718Y9655810D01*
X3971290Y9660381D01*
X3980434Y9664954D01*
X3994150Y9664954D01*
X4003293Y9655810D01*
X4007865Y9642094D01*
X4007865Y9623805D01*
X4003293Y9610344D01*
X3994150Y9601200D01*
X3912361Y9694926D02*
G01*
X4007865Y9694926D01*
X3912361Y9694926D02*
G01*
X3912361Y9726676D01*
X3916934Y9740392D01*
X3925824Y9749281D01*
X3934968Y9753854D01*
X3948684Y9758426D01*
X3971290Y9758426D01*
X3985006Y9753854D01*
X3994150Y9749281D01*
X4003293Y9740392D01*
X4007865Y9726676D01*
X4007865Y9694926D01*
X3912361Y9824720D02*
G01*
X4007865Y9788397D01*
X3912361Y9824720D02*
G01*
X4007865Y9861295D01*
X3975861Y9802113D02*
G01*
X3975861Y9847579D01*
X4179061Y9601200D02*
G01*
X4274565Y9664954D01*
X4179061Y9664954D02*
G01*
X4274565Y9601200D01*
X4179061Y9694926D02*
G01*
X4274565Y9694926D01*
X4179061Y9694926D02*
G01*
X4179061Y9726676D01*
X4183634Y9740392D01*
X4192524Y9749281D01*
X4201668Y9753854D01*
X4215384Y9758426D01*
X4237990Y9758426D01*
X4251706Y9753854D01*
X4260850Y9749281D01*
X4269993Y9740392D01*
X4274565Y9726676D01*
X4274565Y9694926D01*
X4179061Y9824720D02*
G01*
X4274565Y9788397D01*
X4179061Y9824720D02*
G01*
X4274565Y9861295D01*
X4242561Y9802113D02*
G01*
X4242561Y9847579D01*
X4445761Y9613900D02*
G01*
X4541265Y9677654D01*
X4445761Y9677654D02*
G01*
X4541265Y9613900D01*
X4468368Y9775697D02*
G01*
X4459224Y9771126D01*
X4450334Y9761981D01*
X4445761Y9753092D01*
X4445761Y9734804D01*
X4450334Y9725660D01*
X4459224Y9716515D01*
X4468368Y9712197D01*
X4482084Y9707626D01*
X4504690Y9707626D01*
X4518406Y9712197D01*
X4527550Y9716515D01*
X4536693Y9725660D01*
X4541265Y9734804D01*
X4541265Y9753092D01*
X4536693Y9761981D01*
X4527550Y9771126D01*
X4518406Y9775697D01*
X4445761Y9805670D02*
G01*
X4541265Y9805670D01*
X4541265Y9805670D02*
G01*
X4541265Y9860279D01*
X4674361Y9650221D02*
G01*
X4769865Y9613900D01*
X4674361Y9650221D02*
G01*
X4769865Y9686544D01*
X4737861Y9627615D02*
G01*
X4737861Y9673081D01*
X4674361Y9716515D02*
G01*
X4769865Y9716515D01*
X4674361Y9716515D02*
G01*
X4674361Y9748520D01*
X4678934Y9761981D01*
X4687824Y9771126D01*
X4696968Y9775697D01*
X4710684Y9780270D01*
X4733290Y9780270D01*
X4747006Y9775697D01*
X4756150Y9771126D01*
X4765293Y9761981D01*
X4769865Y9748520D01*
X4769865Y9716515D01*
X4674361Y9837420D02*
G01*
X4678934Y9823958D01*
X4692395Y9814813D01*
X4715256Y9810242D01*
X4728718Y9810242D01*
X4751577Y9814813D01*
X4765293Y9823958D01*
X4769865Y9837420D01*
X4769865Y9846563D01*
X4765293Y9860279D01*
X4751577Y9869424D01*
X4728718Y9873995D01*
X4715256Y9873995D01*
X4692395Y9869424D01*
X4678934Y9860279D01*
X4674361Y9846563D01*
X4674361Y9837420D01*
X4928361Y9626600D02*
G01*
X5023865Y9626600D01*
X4928361Y9656571D02*
G01*
X5023865Y9656571D01*
X4928361Y9656571D02*
G01*
X5023865Y9720326D01*
X4928361Y9720326D02*
G01*
X5023865Y9720326D01*
X4928361Y9782047D02*
G01*
X5023865Y9782047D01*
X4928361Y9750297D02*
G01*
X4928361Y9813797D01*
X3733800Y10222737D02*
G01*
X3733800Y10127234D01*
X3733800Y10222737D02*
G01*
X3770122Y10127234D01*
X3806443Y10222737D02*
G01*
X3770122Y10127234D01*
X3806443Y10222737D02*
G01*
X3806443Y10127234D01*
X3836415Y10222737D02*
G01*
X3836415Y10127234D01*
X3836415Y10222737D02*
G01*
X3877309Y10222737D01*
X3891025Y10218165D01*
X3895597Y10213594D01*
X3900170Y10204704D01*
X3900170Y10190987D01*
X3895597Y10181844D01*
X3891025Y10177271D01*
X3877309Y10172700D01*
X3836415Y10172700D01*
X3930141Y10222737D02*
G01*
X3930141Y10154665D01*
X3934713Y10140950D01*
X3943858Y10131805D01*
X3957320Y10127234D01*
X3966463Y10127234D01*
X3980179Y10131805D01*
X3989324Y10140950D01*
X3993895Y10154665D01*
X3993895Y10222737D01*
X4078224Y10209276D02*
G01*
X4073906Y10218165D01*
X4060190Y10222737D01*
X4051045Y10222737D01*
X4037329Y10218165D01*
X4028440Y10204704D01*
X4023868Y10181844D01*
X4023868Y10159237D01*
X4028440Y10140950D01*
X4037329Y10131805D01*
X4051045Y10127234D01*
X4055618Y10127234D01*
X4069334Y10131805D01*
X4078224Y10140950D01*
X4082795Y10154665D01*
X4082795Y10159237D01*
X4078224Y10172700D01*
X4069334Y10181844D01*
X4055618Y10186415D01*
X4051045Y10186415D01*
X4037329Y10181844D01*
X4028440Y10172700D01*
X4023868Y10159237D01*
X4140200Y10222737D02*
G01*
X4126484Y10218165D01*
X4117340Y10204704D01*
X4112768Y10181844D01*
X4112768Y10168381D01*
X4117340Y10145521D01*
X4126484Y10131805D01*
X4140200Y10127234D01*
X4149343Y10127234D01*
X4162806Y10131805D01*
X4171950Y10145521D01*
X4176522Y10168381D01*
X4176522Y10181844D01*
X4171950Y10204704D01*
X4162806Y10218165D01*
X4149343Y10222737D01*
X4140200Y10222737D01*
X4261104Y10222737D02*
G01*
X4215638Y10222737D01*
X4211065Y10181844D01*
X4215638Y10186415D01*
X4229354Y10190987D01*
X4242815Y10190987D01*
X4256531Y10186415D01*
X4265675Y10177271D01*
X4270247Y10163810D01*
X4270247Y10154665D01*
X4265675Y10140950D01*
X4256531Y10131805D01*
X4242815Y10127234D01*
X4229354Y10127234D01*
X4215638Y10131805D01*
X4211065Y10136378D01*
X4206493Y10145521D01*
X4327397Y10222737D02*
G01*
X4313681Y10218165D01*
X4304791Y10204704D01*
X4300220Y10181844D01*
X4300220Y10168381D01*
X4304791Y10145521D01*
X4313681Y10131805D01*
X4327397Y10127234D01*
X4336541Y10127234D01*
X4350258Y10131805D01*
X4359147Y10145521D01*
X4363720Y10168381D01*
X4363720Y10181844D01*
X4359147Y10204704D01*
X4350258Y10218165D01*
X4336541Y10222737D01*
X4327397Y10222737D01*
D10*
X6324600Y12142215D02*
G01*
X6324600Y12064237D01*
X6329679Y12048744D01*
X6340093Y12038329D01*
X6355841Y12033250D01*
X6366256Y12033250D01*
X6381750Y12038329D01*
X6392163Y12048744D01*
X6397243Y12064237D01*
X6397243Y12142215D01*
X6441947Y12142215D02*
G01*
X6499097Y12142215D01*
X6468109Y12100560D01*
X6483604Y12100560D01*
X6494018Y12095479D01*
X6499097Y12090400D01*
X6504431Y12074652D01*
X6504431Y12064237D01*
X6499097Y12048744D01*
X6488684Y12038329D01*
X6473190Y12033250D01*
X6457695Y12033250D01*
X6441947Y12038329D01*
X6436868Y12043410D01*
X6431534Y12053824D01*
D13*
X5803900Y11488928D02*
G01*
X5803900Y11295126D01*
X5803900Y11488928D02*
G01*
X5886958Y11488928D01*
X5914643Y11479784D01*
X5924041Y11470639D01*
X5933186Y11452097D01*
X5933186Y11433555D01*
X5924041Y11415013D01*
X5914643Y11405870D01*
X5886958Y11396726D01*
X5803900Y11396726D02*
G01*
X5886958Y11396726D01*
X5914643Y11387328D01*
X5924041Y11378184D01*
X5933186Y11359642D01*
X5933186Y11331955D01*
X5924041Y11313413D01*
X5914643Y11304270D01*
X5886958Y11295126D01*
X5803900Y11295126D01*
X5994145Y11488928D02*
G01*
X5994145Y11295126D01*
X5994145Y11488928D02*
G01*
X6068059Y11295126D01*
X6141974Y11488928D02*
G01*
X6068059Y11295126D01*
X6141974Y11488928D02*
G01*
X6141974Y11295126D01*
X6202934Y11488928D02*
G01*
X6202934Y11295126D01*
X6202934Y11488928D02*
G01*
X6285991Y11488928D01*
X6313677Y11479784D01*
X6323075Y11470639D01*
X6332220Y11452097D01*
X6332220Y11424412D01*
X6323075Y11405870D01*
X6313677Y11396726D01*
X6285991Y11387328D01*
X6202934Y11387328D01*
X6402324Y11442700D02*
G01*
X6402324Y11452097D01*
X6411722Y11470639D01*
X6420865Y11479784D01*
X6439408Y11488928D01*
X6476238Y11488928D01*
X6494779Y11479784D01*
X6503924Y11470639D01*
X6513322Y11452097D01*
X6513322Y11433555D01*
X6503924Y11415013D01*
X6485636Y11387328D01*
X6393179Y11295126D01*
X6522465Y11295126D01*
X6629654Y11488928D02*
G01*
X6601968Y11479784D01*
X6592570Y11461242D01*
X6592570Y11442700D01*
X6601968Y11424412D01*
X6620509Y11415013D01*
X6657340Y11405870D01*
X6685025Y11396726D01*
X6703568Y11378184D01*
X6712711Y11359642D01*
X6712711Y11331955D01*
X6703568Y11313413D01*
X6694170Y11304270D01*
X6666484Y11295126D01*
X6629654Y11295126D01*
X6601968Y11304270D01*
X6592570Y11313413D01*
X6583425Y11331955D01*
X6583425Y11359642D01*
X6592570Y11378184D01*
X6611111Y11396726D01*
X6638797Y11405870D01*
X6675881Y11415013D01*
X6694170Y11424412D01*
X6703568Y11442700D01*
X6703568Y11461242D01*
X6694170Y11479784D01*
X6666484Y11488928D01*
X6629654Y11488928D01*
X6829043Y11488928D02*
G01*
X6801358Y11479784D01*
X6783070Y11452097D01*
X6773672Y11405870D01*
X6773672Y11378184D01*
X6783070Y11331955D01*
X6801358Y11304270D01*
X6829043Y11295126D01*
X6847586Y11295126D01*
X6875272Y11304270D01*
X6893813Y11331955D01*
X6902958Y11378184D01*
X6902958Y11405870D01*
X6893813Y11452097D01*
X6875272Y11479784D01*
X6847586Y11488928D01*
X6829043Y11488928D01*
D10*
X3492500Y8205215D02*
G01*
X3492500Y8127237D01*
X3497579Y8111744D01*
X3507993Y8101329D01*
X3523741Y8096250D01*
X3534156Y8096250D01*
X3549650Y8101329D01*
X3560063Y8111744D01*
X3565143Y8127237D01*
X3565143Y8205215D01*
X3651504Y8205215D02*
G01*
X3599434Y8132571D01*
X3677411Y8132571D01*
X3651504Y8205215D02*
G01*
X3651504Y8096250D01*
X2718815Y8813800D02*
G01*
X2609850Y8813800D01*
X2718815Y8813800D02*
G01*
X2718815Y8767063D01*
X2713736Y8751570D01*
X2708402Y8746236D01*
X2697988Y8741155D01*
X2682493Y8741155D01*
X2672079Y8746236D01*
X2667000Y8751570D01*
X2661665Y8767063D01*
X2661665Y8813800D01*
X2692908Y8701531D02*
G01*
X2697988Y8701531D01*
X2708402Y8696452D01*
X2713736Y8691118D01*
X2718815Y8680704D01*
X2718815Y8660129D01*
X2713736Y8649715D01*
X2708402Y8644381D01*
X2697988Y8639302D01*
X2687574Y8639302D01*
X2677159Y8644381D01*
X2661665Y8654795D01*
X2609850Y8706865D01*
X2609850Y8633968D01*
X2894584Y6478270D02*
G01*
X2977641Y6478270D01*
X2993390Y6472936D01*
X2998470Y6467855D01*
X3003550Y6457442D01*
X3003550Y6447028D01*
X2998470Y6436613D01*
X2993390Y6431279D01*
X2977641Y6426200D01*
X2967227Y6426200D01*
X2915411Y6512560D02*
G01*
X2910077Y6522720D01*
X2894584Y6538468D01*
X3003550Y6538468D01*
X4631690Y4929631D02*
G01*
X4631690Y5038597D01*
X4631690Y4929631D02*
G01*
X4584954Y4929631D01*
X4569459Y4934712D01*
X4564125Y4940045D01*
X4559045Y4950460D01*
X4559045Y4960873D01*
X4564125Y4971287D01*
X4569459Y4976368D01*
X4584954Y4981447D01*
X4631690Y4981447D02*
G01*
X4584954Y4981447D01*
X4569459Y4986781D01*
X4564125Y4991862D01*
X4559045Y5002276D01*
X4559045Y5018023D01*
X4564125Y5028437D01*
X4569459Y5033518D01*
X4584954Y5038597D01*
X4631690Y5038597D01*
X4524756Y4929631D02*
G01*
X4524756Y5007610D01*
X4519422Y5023104D01*
X4509008Y5033518D01*
X4493513Y5038597D01*
X4483100Y5038597D01*
X4467606Y5033518D01*
X4457191Y5023104D01*
X4451858Y5007610D01*
X4451858Y4929631D01*
X4344924Y4929631D02*
G01*
X4417568Y5038597D01*
X4417568Y4929631D02*
G01*
X4344924Y4929631D01*
X4417568Y5038597D02*
G01*
X4344924Y5038597D01*
X4237990Y4929631D02*
G01*
X4310634Y5038597D01*
X4310634Y4929631D02*
G01*
X4237990Y4929631D01*
X4310634Y5038597D02*
G01*
X4237990Y5038597D01*
X4203700Y4929631D02*
G01*
X4203700Y5038597D01*
X4203700Y4929631D02*
G01*
X4136136Y4929631D01*
X4203700Y4981447D02*
G01*
X4162043Y4981447D01*
X4203700Y5038597D02*
G01*
X4136136Y5038597D01*
X4101845Y4929631D02*
G01*
X4101845Y5038597D01*
X4101845Y4929631D02*
G01*
X4055109Y4929631D01*
X4039361Y4934712D01*
X4034281Y4940045D01*
X4028947Y4950460D01*
X4028947Y4960873D01*
X4034281Y4971287D01*
X4039361Y4976368D01*
X4055109Y4981447D01*
X4101845Y4981447D01*
X4065270Y4981447D02*
G01*
X4028947Y5038597D01*
X3994658Y4950460D02*
G01*
X3984243Y4945126D01*
X3968750Y4929631D01*
X3968750Y5038597D01*
D14*
X5740400Y5382613D02*
G01*
X5740400Y10582602D01*
X8530386Y10582602D01*
X8530386Y5382613D01*
X5740400Y5382613D01*
D13*
X8966200Y6477000D02*
G01*
X8966200Y6261100D01*
X9220200Y6261100D01*
X9220200Y10121900D01*
X8966200Y10121900D01*
X8966200Y10096500D01*
D15*
X8966200Y10096500D02*
G01*
X8966200Y6477000D01*
D14*
X3086100Y9537700D02*
G01*
X3340100Y9537700D01*
X3340100Y9537700D02*
G01*
X5118100Y9537700D01*
X5118100Y9537700D02*
G01*
X5118100Y9283700D01*
X5118100Y9283700D02*
G01*
X3340100Y9283700D01*
X3340100Y9283700D02*
G01*
X3086100Y9283700D01*
X3086100Y9283700D02*
G01*
X3086100Y9537700D01*
X3340100Y9283700D02*
G01*
X3340100Y9537700D01*
X3035300Y10934700D02*
G01*
X5168900Y10934700D01*
X5168900Y9283700D01*
X3035300Y9283700D01*
X3035300Y10934700D01*
X5422900Y11988800D02*
G01*
X7239711Y11988800D01*
X7239711Y10712450D01*
X5422900Y10712450D01*
X5422900Y11988800D01*
X3192500Y8042097D02*
G01*
X3792499Y8042097D01*
X3792499Y7652105D02*
G01*
X3192500Y7652105D01*
X3192500Y8042097D02*
G01*
X3192500Y8025206D01*
X3192500Y7798993D02*
G01*
X3192500Y7652105D01*
X3792499Y8042097D02*
G01*
X3792499Y8015414D01*
X3792499Y7808785D02*
G01*
X3792499Y7652105D01*
D13*
X2578100Y8686800D02*
G01*
X2578100Y8432800D01*
X2326640Y8432800D01*
X2326640Y9194800D01*
X2578100Y9194800D01*
X2578100Y8686800D01*
D14*
X3162300Y6731000D02*
G01*
X3162300Y6858000D01*
X3098800Y6057900D02*
G01*
X3225800Y6057900D01*
X3162300Y5994400D02*
G01*
X3162300Y6121400D01*
X3035300Y6172200D02*
G01*
X3035300Y6680200D01*
X3289300Y6680200D01*
X3289300Y6172200D01*
X3035300Y6172200D01*
X3035300Y6172200D02*
G01*
X3035300Y6426200D01*
X3289300Y6426200D01*
X3289300Y6172200D01*
X3035300Y6172200D01*
X4941570Y5502147D02*
G01*
X4839970Y5502147D01*
X4890770Y5451347D02*
G01*
X4890770Y5552947D01*
X4278896Y5495899D02*
G01*
X4177296Y5495899D01*
G75*
G01*
X3746500Y7652101D02*
G02*
X3238500Y7652101I-254000J103880D01*
G75*
G01
X5211318Y5679948D02*
G03X5211318Y5679948I-599948J0D01*
M02*
